<?xml version="1.0" encoding="UTF-8"?>
<svg width="94px" height="94px" viewBox="0 0 94 94" version="1.1" xmlns="http://www.w3.org/2000/svg" xmlns:xlink="http://www.w3.org/1999/xlink">
    <title>弱电井柜</title>
    <g id="页面-1" stroke="none" stroke-width="1" fill="none" fill-rule="evenodd">
        <g id="弱电井柜" fill-rule="nonzero">
            <rect id="矩形" fill="#000000" opacity="0" x="0" y="0" width="94" height="94"></rect>
            <path d="M33.3947369,32.4052631 C32.4052632,32.4052631 31.4157895,31.6631578 31.4157895,30.4263158 L31.4157895,17.068421 C31.4157895,16.0789474 32.1578948,15.0894737 33.3947369,15.0894737 L67.0368421,15.0894737 C68.0263157,15.0894737 69.0157895,15.831579 69.0157895,17.068421 L69.0157895,30.4263158 C69.0157895,31.4157895 68.0263158,32.4052631 67.0368421,32.4052631 L33.3947369,32.4052631 Z" id="路径" fill="#10ABFF" opacity="0.4"></path>
            <path d="M75.4473684,3.21578948 L25.231579,3.21578948 C22.2631579,3.21578948 19.7894737,5.44210531 19.7894737,8.16315791 L19.7894737,14.8421053 L14.8421053,16.0789474 L14.5947369,16.0789474 C14.5947369,16.0789474 14.3473684,16.0789474 14.3473684,16.3263158 C14.3473684,16.3263158 14.1,16.3263158 14.1,16.5736842 L13.8526316,16.8210526 L13.6052631,17.068421 L13.6052631,29.931579 C13.6052631,29.931579 13.6052631,30.1789474 13.8526316,30.1789474 L14.1,30.4263158 C14.1,30.4263158 14.3473684,30.4263158 14.3473684,30.6736842 C14.3473684,30.6736842 14.5947369,30.6736842 14.5947369,30.9210526 L19.7894737,32.4052631 L19.7894737,64.3157895 L14.8421053,65.3052631 L14.5947369,65.3052631 C14.5947369,65.3052631 14.3473684,65.3052631 14.3473684,65.5526316 C14.3473684,65.5526316 14.1,65.5526316 14.1,65.8 L13.8526316,66.0473684 L13.6052631,66.2947369 L13.6052631,79.1578947 C13.6052631,79.1578947 13.6052631,79.4052631 13.8526316,79.4052631 L14.1,79.6526316 C14.1,79.6526316 14.3473684,79.6526316 14.3473684,79.9 L14.5947369,80.1473684 L19.7894737,81.8789474 L19.7894737,85.8368421 C19.7894737,88.5578947 22.0157895,90.7842105 24.9842105,90.7842105 L75.2,90.7842105 C78.168421,90.7842105 80.3947369,88.5578947 80.3947369,85.8368421 L80.3947369,8.16315791 C80.6421053,5.44210531 78.168421,3.21578948 75.4473684,3.21578948 Z M15.7894737,28.2 L15.7894737,19.0473684 L19.7894737,18.5526316 L19.7894737,28.9421053 L15.7894737,28.2 L15.7894737,28.2 Z M15.7894737,77.4263158 L15.7894737,68.5210526 L19.7894737,67.7789474 L19.7894737,78.168421 L15.7894737,77.4263158 Z M78.1789474,86.7934452 C78.1789474,87.557249 77.4047538,88.3210526 76.3724958,88.3210526 L23.985399,88.3210526 C22.953141,88.3210526 22.1789474,87.5572489 22.1789474,86.7934452 L22.1789474,6.84865997 C22.1789474,6.08485624 22.953141,5.32105261 23.985399,5.32105261 L76.3724958,5.32105261 C77.4047538,5.32105261 78.1789474,6.08485633 78.1789474,6.84865997 L78.1789474,86.7934452 Z" id="形状" fill="#10ABFF"></path>
            <path d="M67.0368421,13.6052631 L33.3947369,13.6052631 C31.4157895,13.6052631 29.6842105,15.3368421 29.6842105,17.3157895 L29.6842105,30.6736842 C29.6842105,32.6526316 31.4157895,34.3842105 33.3947369,34.3842105 L67.0368421,34.3842105 C69.0157895,34.3842105 70.7473684,32.6526316 70.7473684,30.6736842 L70.7473684,17.068421 C70.7473684,15.0894737 69.0157895,13.6052631 67.0368421,13.6052631 Z M68.2842105,32.068421 L32.2842105,32.068421 L32.5469843,16.068421 L68.2842105,16.3647174 L68.2842105,32.068421 Z M38.9313768,58.1813425 C44.5053797,52.6744963 53.4372156,52.6744963 58.9440618,58.1813425 L56.1234821,61.069079 C52.1612391,57.106836 45.7141996,57.106836 41.7519566,61.069079 L38.9313768,58.1813425 Z M44.639693,63.9568154 C46.9901761,61.6063323 50.8852625,61.6063323 53.2357456,63.9568154 L48.9377193,68.2548417 L44.639693,63.9568154 Z M33.1559039,52.4730263 C41.8862699,43.809817 56.0563254,43.809817 64.7195347,52.4730263 L61.8317983,55.3607628 C54.7131922,48.2421567 43.1622465,48.2421567 36.0436404,55.3607628 L33.1559039,52.4730263 Z" id="形状" fill="#10ABFF"></path>
        </g>
    </g>
</svg>