<?xml version="1.0" encoding="UTF-8"?>
<svg width="94px" height="94px" viewBox="0 0 94 94" version="1.1" xmlns="http://www.w3.org/2000/svg" xmlns:xlink="http://www.w3.org/1999/xlink">
    <title>强电井柜</title>
    <g id="页面-1" stroke="none" stroke-width="1" fill="none" fill-rule="evenodd">
        <g id="强电井柜" fill-rule="nonzero">
            <rect id="矩形" fill="#000000" opacity="0" x="0" y="0" width="94" height="94"></rect>
            <path d="M67.0368421,32.4052631 L33.3947369,32.4052631 C32.4052632,32.4052631 31.4157895,31.6631578 31.4157895,30.4263158 L31.4157895,17.068421 C31.4157895,16.0789474 32.1578948,15.0894737 33.3947369,15.0894737 L67.0368421,15.0894737 C68.0263157,15.0894737 69.0157895,15.831579 69.0157895,17.068421 L69.0157895,30.4263158 C69.0157895,31.4157895 68.0263158,32.4052631 67.0368421,32.4052631 L67.0368421,32.4052631 Z" id="路径" fill="#10ABFF" opacity="0.4"></path>
            <path d="M75.4473684,3.21578948 L25.231579,3.21578948 C22.2631579,3.21578948 19.7894737,5.44210531 19.7894737,8.16315791 L19.7894737,14.8421053 L14.8421053,16.0789474 L14.5947369,16.0789474 C14.5947369,16.0789474 14.3473684,16.0789474 14.3473684,16.3263158 C14.3473684,16.3263158 14.1,16.3263158 14.1,16.5736842 L13.8526316,16.8210526 L13.6052631,17.068421 L13.6052631,29.931579 C13.6052631,29.931579 13.6052631,30.1789474 13.8526316,30.1789474 L14.1,30.4263158 C14.1,30.4263158 14.3473684,30.4263158 14.3473684,30.6736842 C14.3473684,30.6736842 14.5947369,30.6736842 14.5947369,30.9210526 L19.7894737,32.4052631 L19.7894737,64.3157895 L14.8421053,65.3052631 L14.5947369,65.3052631 C14.5947369,65.3052631 14.3473684,65.3052631 14.3473684,65.5526316 C14.3473684,65.5526316 14.1,65.5526316 14.1,65.8 L13.8526316,66.0473684 L13.6052631,66.2947369 L13.6052631,79.1578947 C13.6052631,79.1578947 13.6052631,79.4052631 13.8526316,79.4052631 L14.1,79.6526316 C14.1,79.6526316 14.3473684,79.6526316 14.3473684,79.9 L14.5947369,80.1473684 L19.7894737,81.8789474 L19.7894737,85.8368421 C19.7894737,88.5578947 22.0157895,90.7842105 24.9842105,90.7842105 L75.2,90.7842105 C78.168421,90.7842105 80.3947369,88.5578947 80.3947369,85.8368421 L80.3947369,8.16315791 C80.6421053,5.44210531 78.168421,3.21578948 75.4473684,3.21578948 Z M15.7894737,28.2 L15.7894737,19.0473684 L19.7894737,18.5526316 L19.7894737,28.9421053 L15.7894737,28.2 L15.7894737,28.2 Z M15.7894737,77.4263158 L15.7894737,68.5210526 L19.7894737,67.7789474 L19.7894737,78.168421 L15.7894737,77.4263158 Z M78.1789474,86.7934452 C78.1789474,87.557249 77.4047538,88.3210526 76.3724958,88.3210526 L23.985399,88.3210526 C22.953141,88.3210526 22.1789474,87.5572489 22.1789474,86.7934452 L22.1789474,6.84865997 C22.1789474,6.08485624 22.953141,5.32105261 23.985399,5.32105261 L76.3724958,5.32105261 C77.4047538,5.32105261 78.1789474,6.08485633 78.1789474,6.84865997 L78.1789474,86.7934452 Z" id="形状" fill="#10ABFF"></path>
            <path d="M67.0368421,13.6052631 L33.3947369,13.6052631 C31.4157895,13.6052631 29.6842105,15.3368421 29.6842105,17.3157895 L29.6842105,30.6736842 C29.6842105,32.6526316 31.4157895,34.3842105 33.3947369,34.3842105 L67.0368421,34.3842105 C69.0157895,34.3842105 70.7473684,32.6526316 70.7473684,30.6736842 L70.7473684,17.068421 C70.7473684,15.0894737 69.0157895,13.6052631 67.0368421,13.6052631 Z M68.2842105,30.9459721 C68.2842105,30.9459721 68.0214368,31.2214823 68.2842105,30.9459721 L32.2842105,30.9459721 L32.5469843,16.068421 L68.2842105,16.3439313 L68.2842105,30.9459721 Z M57.6368421,59.6157895 L57.6368421,59.368421 C57.6368421,59.368421 57.6368421,59.1210526 57.3894737,59.1210526 C57.3894737,59.1210526 57.3894737,58.8736842 57.1421053,58.8736842 L56.8947369,58.6263158 L56.6473684,58.3789474 L56.4,58.3789474 L47.7421053,58.3789474 L53.431579,49.2263158 C53.9263158,48.4842105 53.6789474,47.2473684 52.9368421,46.7526316 C52.1947368,46.2578947 50.9578947,46.5052631 50.4631579,47.2473684 L43.0421053,59.1210526 L43.0421053,60.6052631 C43.0421053,60.6052631 43.0421053,60.8526316 43.2894737,60.8526316 C43.2894737,60.8526316 43.2894737,61.1 43.5368421,61.1 L43.7842105,61.3473684 L44.031579,61.5947369 L53.6789474,61.5947369 L48.2368421,70.9947369 C47.7421052,71.7368422 47.9894737,72.9736843 48.9789474,73.468421 C49.2263158,73.7157895 49.4736843,73.7157895 49.7210526,73.7157895 C50.2157895,73.7157895 50.9578947,73.468421 51.2052631,72.7263158 L58.131579,60.8526316 L58.131579,60.6052631 L58.131579,60.3578947 C57.6368421,59.8631578 57.6368421,59.8631578 57.6368421,59.6157895 L57.6368421,59.6157895 Z" id="形状" fill="#10ABFF"></path>
        </g>
    </g>
</svg>