<?xml version="1.0" encoding="UTF-8"?>
<svg width="94px" height="94px" viewBox="0 0 94 94" version="1.1" xmlns="http://www.w3.org/2000/svg" xmlns:xlink="http://www.w3.org/1999/xlink">
    <title>控制终端 </title>
    <g id="页面-1" stroke="none" stroke-width="1" fill="none" fill-rule="evenodd">
        <g id="控制终端-" fill-rule="nonzero">
            <rect id="矩形" fill="#000000" opacity="0" x="0" y="0" width="94" height="94"></rect>
            <line x1="19.8496667" y1="79.3244349" x2="72.0666667" y2="79.3244349" id="路径" fill="#FFFFFF"></line>
            <polygon id="路径" fill="#D8E3F0" points="55.977 65.1733333 35.9236667 65.1733333 33.417 74.1033333 58.4836667 74.1033333"></polygon>
            <path d="M78.3333333,20.257 L31.3333333,20.257 L31.3333333,57.857 L10.4496077,57.857 L10.4496077,63.074 C10.4454912,63.6293322 10.663175,64.1633546 11.0543917,64.5575129 C11.4456085,64.9516712 11.9779854,65.1733333 12.5333333,65.1733333 L64.7503333,65.1733333 L64.7503333,51.3553333 C64.7503333,50.7985555 64.9715124,50.2645818 65.3652138,49.8708805 C65.7589152,49.4771791 66.2928889,49.256 66.8496667,49.256 L81.4666667,49.256 L81.4666667,23.3903333 C81.4666667,22.5593216 81.1365486,21.762346 80.5489346,21.174732 C79.9613206,20.5871181 79.164345,20.257 78.3333333,20.257 Z M69.1996667,37.7566903 C67.0818364,37.7630075 65.1690133,36.4921373 64.3541573,34.5373343 C63.5393013,32.5825312 63.9831108,30.3293032 65.4784027,28.8295208 C66.9736947,27.3297385 69.2255819,26.8791747 71.1828195,27.6881656 C73.1400571,28.4971564 74.4166667,30.4061602 74.4166667,32.524 C74.4081201,35.4042695 72.0798976,37.7394837 69.1996667,37.7566903 L69.1996667,37.7566903 Z" id="形状" fill="#EDF4FF"></path>
            <path d="M47.2506667,57.857 L64.7503333,57.857 L64.7503333,51.3553333 C64.7503333,50.7985555 64.9715124,50.2645818 65.3652138,49.8708805 C65.7589152,49.4771791 66.2928889,49.256 66.8496667,49.256 L81.4666667,49.256 L81.4666667,23.3903333 C81.4617538,22.4096108 80.9979304,21.4877619 80.2133333,20.8993333 L57.152,20.8993333 L47.2506667,57.857 Z M69.184,27.3069058 C71.3018398,27.3069058 73.2108436,28.5836096 74.0198344,30.5408472 C74.8288253,32.4980848 74.3782615,34.749972 72.8784792,36.245264 C71.3786968,37.7405559 69.1254688,38.1843653 67.1706657,37.3695094 C65.2158627,36.5546534 63.9449925,34.6418303 63.9513097,32.524 C63.9513097,31.1349196 64.505254,29.8031845 65.4904186,28.8239016 C66.4755832,27.8446186 67.8106113,27.2986572 69.1996667,27.3069058 L69.184,27.3069058 Z M13.583,20.257 L31.3333333,20.257 L31.3333333,57.857 L10.4496667,57.857 L10.4496667,23.3903333 C10.4496667,21.6598411 11.8525078,20.257 13.583,20.257 Z" id="形状" fill="#D8E3F0"></path>
            <path d="M63.7503333,57.857 L9.44960772,57.857 L9.44960772,62.8484347 C9.44549117,63.3797562 9.66317498,63.8906894 10.0543917,64.2678056 C10.4456085,64.6449218 10.9779854,64.857 11.5333333,64.857 L63.7503333,64.857 L63.7503333,57.857 Z" id="路径" fill="#96DDFF"></path>
            <polygon id="路径" fill="#69BAF9" points="64.7503333 57.9823333 51.606 57.9823333 49.7103333 65.048 49.7103333 65.1733333 64.7503333 65.1733333"></polygon>
            <path d="M66.8496667,79.3203333 L25.0666667,79.3203333 C25.0666667,76.4390638 27.4023972,74.1033333 30.2836667,74.1033333 L61.617,74.1033333 C64.5008148,74.1033333 66.8410325,76.4365314 66.8496667,79.3203333 Z" id="路径" fill="#EDF4FF"></path>
            <polygon id="路径" fill="#EDF4FF" points="64.7503333 49.256 85.7503333 49.256 85.7503333 82.673 64.7503333 82.673"></polygon>
            <polygon id="路径" fill="#D8E3F0" points="71.6436667 76.234 78.7563333 49.726 84.8976667 49.726 84.8976667 76.234 71.6436667 76.234"></polygon>
            <path d="M64.7503333,76.7666667 L85.6496667,76.7666667 L85.6496667,80.5266667 C85.6496667,81.677444 84.7167773,82.6103333 83.566,82.6103333 L66.8496667,82.6103333 C65.6988894,82.6103333 64.7660001,81.677444 64.766,80.5266667 L64.766,76.7666667 L64.7503333,76.7666667 Z" id="路径" fill="#96DDFF"></path>
            <path d="M73.6333333,82.6886667 L83.5033333,82.6886667 C84.0601111,82.6886667 84.5940848,82.4674876 84.9877862,82.0737862 C85.3814876,81.6800848 85.6026667,81.1461111 85.6026667,80.5893333 L85.6026667,76.7666667 L75.2,76.7666667 L73.6333333,82.6886667 Z" id="路径" fill="#69BAF9"></path>
            <path d="M63.9826667,32.524 C63.9826667,35.4052695 66.3183972,37.741 69.1996667,37.741 C72.0809362,37.741 74.4166667,35.4052695 74.4166667,32.524 C74.4166667,29.6427305 72.0809362,27.307 69.1996667,27.307 C66.3183972,27.307 63.9826667,29.6427305 63.9826667,32.524 L63.9826667,32.524 Z" id="路径" fill="#FFC670"></path>
            <path d="M83.5503333,47.6893333 L83.0333333,47.6893333 L83.0333333,23.3903333 C83.0333333,20.794595 80.9290716,18.6903333 78.3333333,18.6903333 L13.583,18.6903333 C10.9872617,18.6903333 8.88296633,20.794595 8.88296633,23.3903333 L8.88296633,63.074 C8.87883326,64.0448402 9.2615806,64.9773466 9.94660303,65.6653091 C10.6316255,66.3532715 11.5624842,66.7400089 12.5333333,66.74 L33.8556667,66.74 L32.289,72.5366667 L30.2836667,72.5366667 C27.146244,72.5403222 24.4226577,74.6997371 23.7036667,77.7536667 L19.8496667,77.7536667 C18.9845687,77.7538761 18.2833792,78.4552353 18.2833792,79.3203333 C18.2833792,80.1854314 18.9845687,80.8867906 19.8496667,80.887 L63.215,80.887 C63.3621519,82.7861276 64.9448483,84.2528506 66.8496667,84.2553333 L83.5503333,84.2553333 C85.5750092,84.2553333 87.2163333,82.6140092 87.2163333,80.5893333 L87.2163333,51.3553333 C87.2163333,50.3830497 86.8300951,49.4505882 86.1425868,48.7630798 C85.4550784,48.0755715 84.522617,47.6893333 83.5503333,47.6893333 Z M32.9,21.2903333 L79.3,21.2903333 C80.1836555,21.2903333 80.9,22.0026075 80.9,22.8812423 L80.9,47.5562424 L67.572,47.5562424 C66.5790295,47.5562424 65.6267284,47.9484572 64.9245922,48.646604 C64.222456,49.3447507 63.828,50.291641 63.828,51.2789697 L63.828,56.2903333 L32.9,56.2903333 L32.9,21.2903333 Z M63.1836667,72.7246667 C62.6698129,72.6053401 62.1444967,72.5423022 61.617,72.5366667 L59.6743333,72.5366667 L58.1076667,66.74 L63.2463333,66.74 L63.1836667,72.7246667 Z M10.7666667,22.8812423 C10.7666667,22.0026075 11.5569849,21.2903333 12.5318918,21.2903333 L30.7666667,21.2903333 L30.7666667,56.2903333 L10.7666667,56.2903333 L10.7666667,22.8812423 Z M10.7191842,64.6066667 C10.4208193,64.5945094 10.1836667,64.2559698 10.1836667,63.8426217 L10.1836667,58.6066667 L63.1836667,58.6066667 L63.1836667,64.6066667 L10.7191842,64.6066667 Z M57.4,72.5366667 L34.4,72.5366667 L36.1228465,66.74 L55.6771535,66.74 L57.4,72.5366667 Z M28.6075842,73.7536667 L61.5222659,73.7536667 C62.0926099,73.7506282 62.6557001,73.9873026 63.168,74.4454203 L63.168,77.7536667 L25.168,77.7536667 C25.8021175,75.3149269 27.1465442,73.7589077 28.6240416,73.7536667 L28.6075842,73.7536667 Z M86.0644814,81.3782771 C86.0644814,81.90574 85.7825867,82.3333333 85.4348519,82.3333333 L65.7126297,82.3333333 C65.3648948,82.3333333 65.083,81.9057401 65.083,81.3782771 L65.083,77.3333333 L86.083,77.3333333 L86.0644814,81.3782771 Z M86.0644814,76.2626667 L65.083,76.2626667 L65.083,49.8511282 C65.083,49.5261299 65.3648948,49.2626667 65.7126297,49.2626667 L85.4533703,49.2626667 C85.8011052,49.2626667 86.083,49.5261299 86.083,49.8511282 L86.0644814,76.2626667 Z" id="形状" fill="#3D3D63"></path>
            <path d="M78.3333333,52.922 L72.0666667,52.922 C71.2015687,52.9222094 70.5003792,53.6235686 70.5003792,54.4886667 C70.5003792,55.3537647 71.2015687,56.0551239 72.0666667,56.0553333 L78.3333333,56.0553333 C79.1984313,56.0551239 79.8996208,55.3537647 79.8996208,54.4886667 C79.8996208,53.6235686 79.1984313,52.9222094 78.3333333,52.922 L78.3333333,52.922 Z M26.1163333,26.79 L21.9333333,26.79 C21.0682353,26.7902094 20.3670458,27.4915686 20.3670458,28.3566667 C20.3670458,29.2217647 21.0682353,29.9231239 21.9333333,29.9233333 L26.1163333,29.9233333 C26.9814313,29.9231239 27.6826208,29.2217647 27.6826208,28.3566667 C27.6826208,27.4915686 26.9814313,26.7902094 26.1163333,26.79 Z" id="形状" fill="#3D3D63"></path>
            <path d="M14.617,28.3566667 C14.6168645,28.9164731 14.9154398,29.4338135 15.4002238,29.7137559 C15.8850078,29.9936982 16.4823255,29.9936982 16.9671095,29.7137559 C17.4518935,29.4338135 17.7504688,28.9164731 17.7503333,28.3566667 C17.7504688,27.7968603 17.4518935,27.2795198 16.9671095,26.9995775 C16.4823255,26.7196352 15.8850078,26.7196352 15.4002238,26.9995775 C14.9154398,27.2795198 14.6168645,27.7968603 14.617,28.3566667 Z" id="路径" fill="#3D3D63"></path>
            <path d="M14.617,36.707 C14.6168645,37.2668064 14.9154398,37.7841468 15.4002238,38.0640892 C15.8850078,38.3440315 16.4823255,38.3440315 16.9671095,38.0640892 C17.4518935,37.7841468 17.7504688,37.2668064 17.7503333,36.707 C17.7504688,36.1471936 17.4518935,35.6298532 16.9671095,35.3499108 C16.4823255,35.0699685 15.8850078,35.0699685 15.4002238,35.3499108 C14.9154398,35.6298532 14.6168645,36.1471936 14.617,36.707 Z" id="路径" fill="#3D3D63"></path>
            <path d="M69.1996667,39.3233333 C72.9548348,39.3233333 75.9989999,36.279168 75.9989999,32.5239999 C75.9989999,28.7688319 72.9548347,25.7246667 69.1996666,25.7246667 C65.4444985,25.7246667 62.4003333,28.7688319 62.4003333,32.524 C62.4003333,34.3272953 63.1166896,36.0567324 64.391812,37.3318547 C65.6669343,38.6069771 67.3963714,39.3233333 69.1996667,39.3233333 Z M69.1996667,28.8736667 C70.6838481,28.8736667 72.0215852,29.7685771 72.5880821,31.1403918 C73.154579,32.5122065 72.8380494,34.09024 71.7863299,35.1374651 C70.7346103,36.1846901 69.1552356,36.4944586 67.7858596,35.9220919 C66.4164836,35.3497252 65.527324,34.0081678 65.533633,32.524 C65.5422931,30.505445 67.1810933,28.8736667 69.1996667,28.8736667 L69.1996667,28.8736667 Z" id="形状" fill="#3D3D63"></path>
        </g>
    </g>
</svg>