<?xml version="1.0" encoding="UTF-8"?>
<svg width="94px" height="94px" viewBox="0 0 94 94" version="1.1" xmlns="http://www.w3.org/2000/svg" xmlns:xlink="http://www.w3.org/1999/xlink">
    <title>数据采集终端</title>
    <g id="页面-1" stroke="none" stroke-width="1" fill="none" fill-rule="evenodd">
        <g id="数据采集终端" fill-rule="nonzero">
            <rect id="矩形" fill="#000000" opacity="0" x="0" y="0" width="94" height="94"></rect>
            <g id="编组-17" transform="translate(7.000000, 7.000000)">
                <path d="M77.3333333,5.33333333 L77.3333333,74.6666667 C77.3333333,76.1333333 76.1333333,77.3333333 74.6666667,77.3333333 L5.33333333,77.3333333 C3.86666667,77.3333333 2.66666667,76.1333333 2.66666667,74.6666667 L2.66666667,5.33333333 C2.66666667,3.86666667 3.86666667,2.66666667 5.33333333,2.66666667 L74.6666667,2.66666667 C76.1333333,2.66666667 77.3333333,3.86666667 77.3333333,5.33333333 Z M68,52 L68,12 L12,12 L12,52 L22.6666667,52 L22.6666667,57.3333333 L33.3333333,57.3333333 L33.3333333,62.6666667 L46.6666667,62.6666667 L46.6666667,57.3333333 L57.3333333,57.3333333 L57.3333333,52 L68,52 Z" id="形状" fill="#CBE4FE"></path>
                <path d="M74.6666667,0 L5.33333333,0 C2.392,0 0,2.392 0,5.33333333 L0,74.6666667 C0,77.608 2.392,80 5.33333333,80 L74.6666667,80 C77.608,80 80,77.608 80,74.6666667 L80,5.33333333 C80,2.392 77.608,0 74.6666667,0 Z M77.3814817,77.0496454 L2.95035461,77.0496454 L2.95035461,3.5177305 L77.3900709,3.5177305 L77.3814817,77.0496454 Z" id="形状" fill="#1B81FC"></path>
                <path d="M12,53.3333333 L21.3333333,53.3333333 L21.3333333,57.3333333 C21.3333333,58.069713 21.930287,58.6666667 22.6666667,58.6666667 L32,58.6666667 L32,62.6666667 C32,63.4030463 32.5969537,64 33.3333333,64 L46.6666667,64 C47.4030463,64 48,63.4030463 48,62.6666667 L48,58.6666667 L57.3333333,58.6666667 C58.069713,58.6666667 58.6666667,58.069713 58.6666667,57.3333333 L58.6666667,53.3333333 L68,53.3333333 C68.7363797,53.3333333 69.3333333,52.7363797 69.3333333,52 L69.3333333,12 C69.3333333,11.2636203 68.7363797,10.6666667 68,10.6666667 L12,10.6666667 C11.2636203,10.6666667 10.6666667,11.2636203 10.6666667,12 L10.6666667,52 C10.6666667,52.7363797 11.2636203,53.3333333 12,53.3333333 Z M45.3333333,61.3333333 L34.6666667,61.3333333 L34.6666667,58.6666667 L45.3333333,58.6666667 L45.3333333,61.3333333 Z M56,56 L24,56 L24,53.3333333 L56,53.3333333 L56,56 Z M13.3333333,13.3333333 L66.6666667,13.3333333 L66.6666667,50.6666667 L13.3333333,50.6666667 L13.3333333,13.3333333 Z" id="形状" fill="#1B81FC"></path>
                <path d="M24,18.6666667 C22.5272407,18.6666667 21.3333333,19.860574 21.3333333,21.3333333 L21.3333333,29.3333333 C21.3333333,30.8060927 22.5272407,32 24,32 C25.4727593,32 26.6666667,30.8060927 26.6666667,29.3333333 L26.6666667,21.3333333 C26.6666667,19.860574 25.4727593,18.6666667 24,18.6666667 Z M56,18.6666667 C54.5272407,18.6666667 53.3333333,19.860574 53.3333333,21.3333333 L53.3333333,29.3333333 C53.3333333,30.8060927 54.5272407,32 56,32 C57.4727593,32 58.6666667,30.8060927 58.6666667,29.3333333 L58.6666667,21.3333333 C58.6666667,19.860574 57.4727593,18.6666667 56,18.6666667 Z M48,18.6666667 C46.5272407,18.6666667 45.3333333,19.860574 45.3333333,21.3333333 L45.3333333,29.3333333 C45.3333333,30.8060927 46.5272407,32 48,32 C49.4727593,32 50.6666667,30.8060927 50.6666667,29.3333333 L50.6666667,21.3333333 C50.6666667,19.860574 49.4727593,18.6666667 48,18.6666667 Z M40,18.6666667 C38.5272407,18.6666667 37.3333333,19.860574 37.3333333,21.3333333 L37.3333333,29.3333333 C37.3333333,30.8060927 38.5272407,32 40,32 C41.4727593,32 42.6666667,30.8060927 42.6666667,29.3333333 L42.6666667,21.3333333 C42.6666667,19.860574 41.4727593,18.6666667 40,18.6666667 Z M32,18.6666667 C30.5272407,18.6666667 29.3333333,19.860574 29.3333333,21.3333333 L29.3333333,29.3333333 C29.3333333,30.8060927 30.5272407,32 32,32 C33.4727593,32 34.6666667,30.8060927 34.6666667,29.3333333 L34.6666667,21.3333333 C34.6666667,19.860574 33.4727593,18.6666667 32,18.6666667 Z" id="形状" fill="#5465CF"></path>
            </g>
        </g>
    </g>
</svg>