<?xml version="1.0" encoding="UTF-8"?>
<svg width="94px" height="94px" viewBox="0 0 94 94" version="1.1" xmlns="http://www.w3.org/2000/svg" xmlns:xlink="http://www.w3.org/1999/xlink">
    <title>水表</title>
    <g id="页面-1" stroke="none" stroke-width="1" fill="none" fill-rule="evenodd">
        <g id="水表" fill-rule="nonzero">
            <rect id="矩形" fill="#000000" opacity="0" x="0" y="0" width="94" height="94"></rect>
            <path d="M88.125,46.4767578 L88.125,47 C88.125,47.6333984 88.1066406,48.2576172 88.0791016,48.8818359 C88.0791016,48.9369141 88.0699219,48.9919922 88.0699219,49.0470703 C88.0515625,49.3683594 88.0423828,49.6988281 88.0148437,50.0201172 C88.0056641,50.1394531 87.9964844,50.2587891 87.9873047,50.3689453 C87.8771484,51.7 87.7119141,53.0035156 87.4824219,54.2886719 C87.4824219,54.2978516 87.4732422,54.3162109 87.4732422,54.3253906 C87.4089844,54.6925781 87.3355469,55.0597656 87.2529297,55.4361328 C87.2070312,55.6380859 87.1703125,55.8308594 87.1244141,56.0328125 C86.9958984,56.6111328 86.8490234,57.1802734 86.7021484,57.7494141 C86.7021484,57.7677734 86.6929687,57.7861328 86.6929687,57.8044922 C86.3992187,58.9060547 86.0503906,59.9892578 85.6648437,61.0449219 C85.5455078,61.3662109 85.4261719,61.6875 85.3068359,61.9996094 C85.2425781,62.1740234 85.1691406,62.3392578 85.1048828,62.5136719 C84.9212891,62.9542969 84.7376953,63.3857422 84.5449219,63.8171875 C84.3796875,64.184375 84.2144531,64.5423828 84.0400391,64.9003906 C83.2505859,66.534375 82.3509766,68.1132812 81.3503906,69.61875 C81.3320312,69.6462891 81.3136719,69.6830078 81.2861328,69.7105469 C81.0933594,70.0042969 80.8914062,70.3072266 80.6802734,70.5917969 C80.3222656,71.0966797 79.9642578,71.5923828 79.5878906,72.0789063 C79.1748047,72.6205078 78.7433594,73.14375 78.3027344,73.6578125 C76.0537109,76.3107422 73.4742187,78.6607422 70.6376953,80.6619141 C69.0863281,81.7542969 67.4523437,82.7457031 65.7541016,83.6085937 C60.1269531,86.5001953 53.75625,88.125 47,88.125 C36.1037109,88.125 26.2080078,83.8931641 18.8458984,76.9808594 C18.6439453,76.7880859 18.4328125,76.5861328 18.2308594,76.3841797 L17.6525391,75.8058594 C16.5050781,74.6400391 15.421875,73.4007813 14.4212891,72.0972656 C14.1183594,71.7025391 13.8154297,71.2986328 13.5308594,70.8947266 C13.2646484,70.5183594 12.9984375,70.1419922 12.7414063,69.7564453 C12.7230469,69.7380859 12.7138672,69.7105469 12.6955078,69.6921875 C12.6863281,69.6738281 12.6679688,69.6554688 12.6587891,69.6371094 C12.4017578,69.2515625 12.1539063,68.8660156 11.9152344,68.4712891 C11.2083984,67.3238281 10.5566406,66.1396484 9.96914063,64.91875 C9.83144531,64.6341797 9.69375,64.3496094 9.56523438,64.0558594 C9.4,63.7070312 9.253125,63.3490234 9.09707031,62.9910156 C8.98691406,62.7339844 8.8859375,62.4861328 8.78496094,62.2291016 C8.7390625,62.128125 8.70234375,62.0179688 8.65644531,61.9078125 C8.61054688,61.7976562 8.57382813,61.6875 8.52792969,61.5773437 C8.46367187,61.4029297 8.39023438,61.2193359 8.32597656,61.0449219 C8.09648437,60.4023438 7.87617187,59.7597656 7.67421875,59.0988281 C7.54570313,58.6673828 7.4171875,58.2359375 7.29785156,57.8044922 C7.28867188,57.7861328 7.28867188,57.7585937 7.27949219,57.7402344 C7.06835938,56.9783203 6.88476563,56.2164062 6.72871094,55.4361328 C6.63691406,55.0046875 6.55429688,54.5824219 6.48085938,54.1417969 C6.26054688,52.9025391 6.0953125,51.6357422 5.99433594,50.3597656 C5.98515625,50.2496094 5.97597656,50.1302734 5.96679688,50.0109375 C5.9484375,49.8181641 5.93925781,49.6253906 5.93007813,49.4234375 C5.92089844,49.3041016 5.92089844,49.1755859 5.91171875,49.0470703 C5.91171875,48.9828125 5.90253906,48.9185547 5.90253906,48.8634766 C5.875,48.2392578 5.85664063,47.6058594 5.85664063,46.9816406 C5.85664063,46.70625 5.85664063,46.4400391 5.86582031,46.1738281 C5.875,45.6964844 5.89335938,45.2283203 5.92089844,44.7509766 C5.93925781,44.3837891 5.96679688,44.0166016 5.99433594,43.6494141 C5.99433594,43.621875 5.99433594,43.5851562 6.00351563,43.5576172 C6.08613281,42.5845703 6.19628906,41.6207031 6.34316406,40.6660156 C6.3890625,40.3722656 6.44414063,40.0785156 6.49003906,39.7847656 C6.50839844,39.6929687 6.52675781,39.5919922 6.54511719,39.5001953 C6.63691406,38.9861328 6.74707031,38.4720703 6.85722656,37.9671875 C7.25195312,36.1955078 7.76601563,34.4789062 8.38105469,32.7990234 C14.1642578,17.0925781 29.2740234,5.875 47,5.875 C52.8382813,5.875 58.3919922,7.08671875 63.4224609,9.28984375 C65.8917969,10.3638672 68.2326172,11.6765625 70.4173828,13.1912109 C77.3021484,17.9738281 82.6630859,24.8035156 85.6097656,32.7990234 C86.2248047,34.4789062 86.7388672,36.2046875 87.1427734,37.9855469 C87.2529297,38.4904297 87.3630859,39.0044922 87.4548828,39.5185547 C87.4732422,39.6103516 87.4916016,39.7021484 87.5007813,39.7847656 C87.5558594,40.0785156 87.6017578,40.3722656 87.6476563,40.6751953 C87.8037109,41.6666016 87.9230469,42.6580078 87.9964844,43.6769531 C88.0607422,44.503125 88.1066406,45.3292969 88.125,46.1738281 L88.125,46.4767578 Z" id="路径" stroke="#10ABFF" stroke-width="2"></path>
            <path d="M88.125,46.4767578 L88.125,47 C88.125,47.6333984 88.1066406,48.2576172 88.0791016,48.8818359 C88.0791016,48.9369141 88.0699219,48.9919922 88.0699219,49.0470703 C88.0515625,49.3683594 88.0423828,49.6988281 88.0148437,50.0201172 C88.0056641,50.1394531 87.9964844,50.2587891 87.9873047,50.3689453 C87.8771484,51.7 87.7119141,53.0035156 87.4824219,54.2886719 C87.4824219,54.2978516 87.4732422,54.3162109 87.4732422,54.3253906 C87.4089844,54.6925781 87.3355469,55.0597656 87.2529297,55.4361328 L72.1707031,55.4361328 C69.5912109,63.7162109 63.1103516,70.1970703 54.8394531,72.7765625 C40.9414062,77.1001953 26.1621094,69.3433594 21.8384766,55.4361328 L6.72871094,55.4361328 C6.63691406,55.0046875 6.55429688,54.5824219 6.48085938,54.1417969 C6.26054688,52.9025391 6.0953125,51.6357422 5.99433594,50.3597656 C5.98515625,50.2496094 5.97597656,50.1302734 5.96679688,50.0109375 C5.9484375,49.8181641 5.93925781,49.6253906 5.93007813,49.4234375 C5.92089844,49.3041016 5.92089844,49.1755859 5.91171875,49.0470703 C5.91171875,48.9828125 5.90253906,48.9185547 5.90253906,48.8634766 C5.875,48.2392578 5.85664063,47.6058594 5.85664063,46.9816406 C5.85664063,46.70625 5.85664063,46.4400391 5.86582031,46.1738281 C5.875,45.6964844 5.89335938,45.2283203 5.92089844,44.7509766 C5.93925781,44.3837891 5.96679688,44.0166016 5.99433594,43.6494141 C5.99433594,43.621875 5.99433594,43.5851562 6.00351563,43.5576172 C6.08613281,42.5845703 6.19628906,41.6207031 6.34316406,40.6660156 C6.3890625,40.3722656 6.44414063,40.0785156 6.49003906,39.7847656 L21.8292969,39.7847656 C24.4087891,31.5046875 30.8896484,25.0238281 39.1605469,22.4443359 C53.0585938,18.1207031 67.8378906,25.8775391 72.1615234,39.7847656 L87.5007813,39.7847656 C87.5558594,40.0785156 87.6017578,40.3722656 87.6476563,40.6751953 C87.8037109,41.6666016 87.9230469,42.6580078 87.9964844,43.6769531 C88.0607422,44.503125 88.1066406,45.3292969 88.125,46.1738281 L88.125,46.4767578 Z" id="路径" fill="#4D76FF"></path>
            <path d="M88.125,46.1845426 L88.125,47.9750188 C88.125,49.3477172 88.1066406,50.7005215 88.0791016,52.0533257 C88.0791016,52.1726908 88.0699219,52.2920558 88.0699219,52.4114209 L67.5441406,52.4114209 C66.7730469,52.3517384 66.1488281,50.97904 66.1488281,49.2880347 C66.1488281,47.5970294 66.7638672,46.224331 67.5441406,46.1646484 L88.125,46.1646484 L88.125,46.1845426 Z M27.8511719,49.3079289 C27.8511719,50.9989342 27.2361328,52.3716326 26.4558594,52.4313151 L5.91171875,52.4313151 C5.91171875,52.2920558 5.90253906,52.1527966 5.90253906,52.0334315 C5.875,50.6806273 5.85664063,49.3079289 5.85664063,47.9551246 C5.85664063,47.3582992 5.85664063,46.781368 5.86582031,46.2044368 L26.4650391,46.2044368 C27.2361328,46.2442252 27.8511719,47.6169236 27.8511719,49.3079289 L27.8511719,49.3079289 Z" id="形状" fill="#47D1FA"></path>
            <path d="M26.4099609,47.6150391 C26.4099609,58.9866036 35.6284354,68.2050781 47,68.2050781 C58.3715646,68.2050781 67.5900391,58.9866036 67.5900391,47.6150391 C67.5900391,36.2434745 58.3715646,27.025 47,27.025 C35.6284354,27.025 26.4099609,36.2434745 26.4099609,47.6150391 L26.4099609,47.6150391 Z" id="路径" fill="#EEF0F1"></path>
            <path d="M61.246875,43.76875 L32.753125,43.76875 C32.1839844,43.76875 31.7158203,43.3005859 31.7158203,42.7314453 L31.7158203,38.0681641 C31.7158203,37.4990234 32.1839844,37.0308594 32.753125,37.0308594 L61.246875,37.0308594 C61.8160156,37.0308594 62.2841797,37.4990234 62.2841797,38.0681641 L62.2841797,42.7314453 C62.2841797,43.3005859 61.8160156,43.76875 61.246875,43.76875 Z" id="路径" fill="#FF630D"></path>
            <path d="M36.8564453,44.5367839 L33.7720703,44.5367839 C33.4691406,44.5367839 33.2212891,44.1657312 33.2212891,43.7122225 L33.2212891,39.0946786 C33.2212891,38.6411698 33.4691406,38.2701172 33.7720703,38.2701172 L36.8564453,38.2701172 C37.159375,38.2701172 37.4072266,38.6411698 37.4072266,39.0946786 L37.4072266,43.7122225 C37.4072266,44.1657312 37.159375,44.5367839 36.8564453,44.5367839 Z M42.6947266,44.5367839 L39.6103516,44.5367839 C39.3074219,44.5367839 39.0595703,44.1657312 39.0595703,43.7122225 L39.0595703,39.0946786 C39.0595703,38.6411698 39.3074219,38.2701172 39.6103516,38.2701172 L42.6947266,38.2701172 C42.9976563,38.2701172 43.2455078,38.6411698 43.2455078,39.0946786 L43.2455078,43.7122225 C43.2455078,44.1657312 42.9976563,44.5367839 42.6947266,44.5367839 Z M48.5421875,44.5367839 L45.4578125,44.5367839 C45.1548828,44.5367839 44.9070312,44.1657312 44.9070312,43.7122225 L44.9070312,39.0946786 C44.9070312,38.6411698 45.1548828,38.2701172 45.4578125,38.2701172 L48.5421875,38.2701172 C48.8451172,38.2701172 49.0929687,38.6411698 49.0929687,39.0946786 L49.0929687,43.7122225 C49.0929687,44.1657312 48.8451172,44.5367839 48.5421875,44.5367839 Z M54.3804687,44.5367839 L51.2960937,44.5367839 C50.9931641,44.5367839 50.7453125,44.1657312 50.7453125,43.7122225 L50.7453125,39.0946786 C50.7453125,38.6411698 50.9931641,38.2701172 51.2960937,38.2701172 L54.3804687,38.2701172 C54.6833984,38.2701172 54.93125,38.6411698 54.93125,39.0946786 L54.93125,43.7122225 C54.93125,44.1657312 54.6833984,44.5367839 54.3804687,44.5367839 Z M60.2279297,44.5367839 L57.1435547,44.5367839 C56.840625,44.5367839 56.5927734,44.1657312 56.5927734,43.7122225 L56.5927734,39.0946786 C56.5927734,38.6411698 56.840625,38.2701172 57.1435547,38.2701172 L60.2279297,38.2701172 C60.5308594,38.2701172 60.7787109,38.6411698 60.7787109,39.0946786 L60.7787109,43.7122225 C60.7695312,44.1657312 60.5216797,44.5367839 60.2279297,44.5367839 Z" id="形状" fill="#FFEB57"></path>
            <path d="M53.9765625,57.4923828 C53.9765625,61.3478516 50.8554688,64.4689453 47,64.4689453 C43.1445312,64.4689453 40.0234375,61.3478516 40.0234375,57.4923828 C40.0234375,53.6369141 47,45.9259766 47,45.9259766 C47,45.9259766 53.9765625,53.6460937 53.9765625,57.4923828 Z" id="路径" fill="#47D1FA"></path>
            <path d="M38.3619141,51.6816406 C38.3619141,53.609375 36.8013672,55.1699219 34.8736328,55.1699219 C32.9458984,55.1699219 31.3853516,53.609375 31.3853516,51.6816406 C31.3853516,49.7539062 34.8736328,45.8984375 34.8736328,45.8984375 C34.8736328,45.8984375 38.3619141,49.7630859 38.3619141,51.6816406 Z M62.6146484,51.6816406 C62.6146484,53.609375 61.0541016,55.1699219 59.1263672,55.1699219 C57.1986328,55.1699219 55.6380859,53.609375 55.6380859,51.6816406 C55.6380859,49.7539062 59.1263672,45.8984375 59.1263672,45.8984375 C59.1263672,45.8984375 62.6146484,49.7630859 62.6146484,51.6816406 Z" id="形状" fill="#47D1FA"></path>
            <path d="M53.6185547,34.5064453 L40.3814453,34.5064453 C39.7205078,34.5064453 39.1697266,33.9648438 39.1697266,33.2947266 C39.1697266,32.6337891 39.7113281,32.0830078 40.3814453,32.0830078 L53.6185547,32.0830078 C54.2794922,32.0830078 54.8302734,32.6246094 54.8302734,33.2947266 C54.8302734,33.9556641 54.2794922,34.5064453 53.6185547,34.5064453 L53.6185547,34.5064453 Z" id="路径" fill="#4D76FF"></path>
        </g>
    </g>
</svg>