<?xml version="1.0" encoding="UTF-8"?>
<svg width="94px" height="94px" viewBox="0 0 94 94" version="1.1" xmlns="http://www.w3.org/2000/svg" xmlns:xlink="http://www.w3.org/1999/xlink">
    <title>电表</title>
    <g id="页面-1" stroke="none" stroke-width="1" fill="none" fill-rule="evenodd">
        <g id="电表" fill-rule="nonzero">
            <rect id="矩形" fill="#000000" opacity="0" x="0" y="0" width="94" height="94"></rect>
            <g id="编组-13" transform="translate(7.000000, 7.000000)">
                <path d="M5,0 L75,0 C77.7614237,0 80,2.23857625 80,5 L80,65 C80,67.7614237 77.7614237,70 75,70 L70,70 L66.38,77.235 C65.5336823,78.9286471 63.8033286,79.9989889 61.91,80 L18.09,80 C16.1966714,79.9989889 14.4663177,78.9286471 13.62,77.235 L10,70 L5,70 C2.23857625,70 0,67.7614237 0,65 L0,5 C0,2.23857625 2.23857625,0 5,0 Z M10.0221795,4.83948556 C7.26075573,4.83948556 5.02217948,7.07806181 5.02217948,9.83948556 L5.02217948,51.7543792 C5.02217948,54.5158029 7.26075573,56.7543792 10.0221795,56.7543792 L69.9072799,56.5852569 C72.6687037,56.5852569 74.9072799,54.3466807 74.9072799,51.5852569 L74.9072799,9.67036329 C74.9072799,6.90893955 72.6687037,4.67036329 69.9072799,4.67036329 L10.0221795,4.83948556 Z M17.5,60 C16.1192881,60 15,61.1192881 15,62.5 C15,63.8807119 16.1192881,65 17.5,65 C18.8807119,65 20,63.8807119 20,62.5 C20,61.1192881 18.8807119,60 17.5,60 Z M27.5,60 C26.1192881,60 25,61.1192881 25,62.5 C25,63.8807119 26.1192881,65 27.5,65 L52.5,65 C53.8807119,65 55,63.8807119 55,62.5 C55,61.1192881 53.8807119,60 52.5,60 L27.5,60 Z M62.5,60 C61.1192881,60 60,61.1192881 60,62.5 C60,63.8807119 61.1192881,65 62.5,65 C63.8807119,65 65,63.8807119 65,62.5 C65,61.1192881 63.8807119,60 62.5,60 Z" id="形状" fill="#10ABFF"></path>
                <g id="编组-12" transform="translate(20.000000, 20.000000)" fill="#9BD9FB">
                    <path d="M2.5,0 C3.88071187,0 5,1.11928813 5,2.5 C5,3.88071187 3.88071187,5 2.5,5 C1.11928813,5 0,3.88071187 0,2.5 C0,1.11928813 1.11928813,0 2.5,0 Z" id="路径"></path>
                    <path d="M12.5,0 L27.5,0 C28.8807119,0 30,1.11928813 30,2.5 C30,3.88071187 28.8807119,5 27.5,5 L12.5,5 C11.1192881,5 10,3.88071187 10,2.5 C10,1.11928813 11.1192881,0 12.5,0 Z" id="路径"></path>
                    <path d="M2.5,15 L37.5,15 C38.8807119,15 40,16.1192881 40,17.5 C40,18.8807119 38.8807119,20 37.5,20 L2.5,20 C1.11928813,20 0,18.8807119 0,17.5 C0,16.1192881 1.11928813,15 2.5,15 Z" id="路径"></path>
                    <path d="M37.5,0 C38.8807119,0 40,1.11928813 40,2.5 C40,3.88071187 38.8807119,5 37.5,5 C36.1192881,5 35,3.88071187 35,2.5 C35,1.11928813 36.1192881,0 37.5,0 Z" id="路径"></path>
                </g>
            </g>
        </g>
    </g>
</svg>