<?xml version="1.0" encoding="UTF-8"?>
<svg width="94px" height="94px" viewBox="0 0 94 94" version="1.1" xmlns="http://www.w3.org/2000/svg" xmlns:xlink="http://www.w3.org/1999/xlink">
    <title>编组 2备份 3</title>
    <g id="页面-1" stroke="none" stroke-width="1" fill="none" fill-rule="evenodd">
        <g id="编组-2备份-3" fill-rule="nonzero">
            <g id="电缆">
                <rect id="矩形" fill="#000000" opacity="0" x="0" y="0" width="94" height="94"></rect>
                <path d="M22.7918212,35.5869514 L21,35.5869514 L21,70.7665243 L21.0569504,70.7665243 C21.0187675,71.0312906 21,71.2983598 21,71.5657438 C21,78.1921081 32.8369874,83.56 47.4400029,83.56 C62.0430183,83.56 73.880003,78.1921081 73.880003,71.5657438 C73.880003,71.2973492 73.8596645,71.0289546 73.8230553,70.7665243 L73.880003,70.7665243 L73.880003,35.5869514 L72.0881845,35.5869514 C70.8231322,42.7819146 61.0505014,48.3784389 47.4400029,48.3784389 C33.8295043,48.3784389 24.0568735,42.7839027 22.7918212,35.5869514 Z M25.9564858,46.78 L30.9150028,51.5773049 L30.9150028,75.1284335 L25.9564858,71.5657438 L25.9564858,46.78 Z" id="形状" fill="#5C97FF"></path>
                <path d="M45.7885198,7 C41.3323628,7 37.6999136,9.39169405 37.5270367,12.3818086 L37.5270367,12.5965243 C37.5270367,12.7814184 37.5392397,12.9643243 37.5677136,13.1432541 L37.6104244,13.3977319 L37.5270367,13.3977319 C33.0057966,13.3977319 29.3306366,15.8570216 29.2635197,18.9107557 L29.2635197,37.3842562 L29.2757228,37.6089124 C29.6092735,41.0364108 37.614492,43.78 47.4400029,43.78 L48.0786306,43.7760238 C57.8207537,43.6567373 65.616486,40.8415762 65.616486,37.3842562 L65.616486,19.2189124 L65.616486,18.9942562 C65.616486,15.9027481 61.9189537,13.3957438 57.3550029,13.3957438 L56.9014552,13.4056843 C55.8926675,13.4414703 54.9286244,13.602507 54.0479691,13.8629492 L54.0500029,12.3818086 L54.0398337,12.3818086 L54.0377998,12.2903557 C53.8018737,9.34199135 50.1978983,7 45.7885198,7 Z M37.5270367,14.9961708 C40.7872921,14.9961708 43.4292582,16.4276086 43.4292582,18.1930486 C43.4292582,19.9604768 40.7852582,21.3939027 37.5270367,21.3939027 C34.2667813,21.3939027 31.6248151,19.9604768 31.6248151,18.1930486 C31.6248151,16.4276086 34.2688151,14.9961708 37.5270367,14.9961708 L37.5270367,14.9961708 Z M57.3570368,14.9961708 C60.6172922,14.9961708 63.2592583,16.4276086 63.2592583,18.1930486 C63.2592583,19.9604768 60.6152583,21.3939027 57.3570368,21.3939027 C54.0967814,21.3939027 51.4548152,19.9604768 51.4548152,18.1930486 C51.4548152,16.4276086 54.0988152,14.9961708 57.3570368,14.9961708 L57.3570368,14.9961708 Z M45.7885198,8.59843892 C49.0487752,8.59843892 51.6907413,10.0298768 51.6907413,11.7973049 C51.6907413,13.564733 49.0487752,14.9961708 45.7905536,14.9961708 C42.5302982,14.9961708 39.8883321,13.564733 39.8883321,11.7973049 C39.8883321,10.0318649 42.5302982,8.59843892 45.7885198,8.59843892 L45.7885198,8.59843892 Z" id="形状备份-2" fill="#5C97FF" opacity="0.762495495"></path>
            </g>
        </g>
    </g>
</svg>