<?xml version="1.0" encoding="UTF-8"?>
<svg width="94px" height="94px" viewBox="0 0 94 94" version="1.1" xmlns="http://www.w3.org/2000/svg" xmlns:xlink="http://www.w3.org/1999/xlink">
    <title>空调</title>
    <g id="页面-1" stroke="none" stroke-width="1" fill="none" fill-rule="evenodd">
        <g id="空调" fill-rule="nonzero">
            <rect id="矩形" fill="#000000" opacity="0" x="0" y="0" width="94" height="94"></rect>
            <path d="M88.7664063,62.7419922 L20.1849609,62.7419922 C18.0277344,62.7419922 16.2652344,60.9794922 16.2652344,58.8222656 L16.2652344,41.1880859 C16.2652344,39.0308594 18.0277344,37.2683594 20.1849609,37.2683594 L86.8019531,37.2683594 C87.9769531,37.2683594 88.7572266,38.0486328 88.7572266,39.2236328 L88.7572266,62.7419922 L88.7664063,62.7419922 Z" id="路径" fill="#FFC522"></path>
            <path d="M88.7664062,28.3933594 L88.7664062,62.3933594 L6.76640625,62.3933594 L6.76640625,28.3933594 L88.7664062,28.3933594 M86.7664062,25.4736328 L8.39023437,25.4736328 C6.23300781,25.4736328 4.47050781,27.2361328 4.47050781,29.3933594 L4.47050781,60.7419922 C4.47050781,62.8992188 6.23300781,64.6617188 8.39023437,64.6617188 L86.7664062,64.6617188 C88.9236328,64.6617188 90.6861328,62.8992188 90.6861328,60.7419922 L90.6861328,29.3933594 C90.6769531,27.2361328 88.9144531,25.4736328 86.7664062,25.4736328 Z" id="形状" fill="#000000"></path>
            <path d="M71.0875,34.4164844 L71.0875,36.5021094 L59.3283203,36.5021094 L59.3283203,34.4164844 L71.0875,34.4164844 M71.0875,32.3308594 L59.3283203,32.3308594 C58.1533203,32.3308594 57.3730469,33.163151 57.3730469,34.4164844 L57.3730469,36.5021094 C57.3730469,37.7554427 58.1533203,38.5877344 59.3283203,38.5877344 L71.0875,38.5877344 C72.2625,38.5877344 73.0427734,37.7554427 73.0427734,36.5021094 L73.0427734,34.4164844 C73.0427734,33.163151 72.2625,32.3308594 71.0875,32.3308594 Z M79.9,34.0052344 C80.6802734,34.0052344 81.4697266,34.631901 81.4697266,35.6796094 C81.4697266,36.7273177 80.8822266,37.3539844 79.9,37.3539844 C78.9177734,37.3539844 78.3302734,36.7273177 78.3302734,35.6796094 C78.3394531,34.631901 79.1197266,34.0052344 79.9,34.0052344 M79.9,32.3308594 C78.3302734,32.3308594 76.9625,33.7898177 76.9625,35.4641927 C76.9625,37.1385677 78.3302734,38.597526 79.9,38.597526 C81.4697266,38.597526 82.8375,37.1385677 82.8375,35.4641927 C82.8375,33.7898177 81.4697266,32.3308594 79.9,32.3308594 Z" id="形状" fill="#000000"></path>
            <path d="M82.8466797,51.9203125 L12.3099609,51.9203125 C11.7224609,51.9203125 11.3277344,51.5255859 11.3277344,50.9380859 C11.3277344,50.3505859 11.7224609,49.9558594 12.3099609,49.9558594 L82.8466797,49.9558594 C83.4341797,49.9558594 83.8289063,50.3505859 83.8289063,50.9380859 C83.8197266,51.5347656 83.4341797,51.9203125 82.8466797,51.9203125 Z" id="路径" fill="#000000"></path>
            <path d="M82.8466797,57.8044922 L12.3099609,57.8044922 C11.7224609,57.8044922 11.3277344,57.4097656 11.3277344,56.8222656 C11.3277344,56.2347656 11.7224609,55.8400391 12.3099609,55.8400391 L82.8466797,55.8400391 C83.4341797,55.8400391 83.8289063,56.2347656 83.8289063,56.8222656 C83.8289063,57.4097656 83.4341797,57.8044922 82.8466797,57.8044922 Z" id="路径" fill="#000000"></path>
            <path d="M19.7546875,74.8511719 L21.7099609,75.8333984 L21.7099609,75.640625 C22.1046875,74.465625 22.6921875,72.703125 22.1046875,71.1333984 C21.5171875,69.3708984 20.9296875,68.1958984 20.7369141,67.6083984 L23.6744141,68.1958984 C23.6744141,68.1958984 24.8494141,70.1511719 23.8671875,72.703125 C23.4724609,73.878125 23.0869141,74.8603516 22.4994141,75.8425781 L22.3066406,76.4300781 L24.2619141,75.8425781 L21.7191406,79.1748047 L19.7546875,74.8511719 L19.7546875,74.8511719 Z" id="路径" fill="#000000"></path>
            <path d="M21.1224609,67.9847656 L23.2796875,68.3794922 C23.4724609,68.9669922 24.2619141,70.5367187 23.4724609,72.6939453 C23.0777344,73.8689453 22.6921875,74.8511719 22.1046875,75.8333984 L21.7099609,76.815625 L22.6921875,76.4208984 L23.2796875,76.228125 L21.5171875,78.578125 L20.1494141,75.4386719 L21.1316406,76.0261719 L21.7191406,76.2189453 L21.9119141,75.6314453 C22.3066406,74.4564453 22.8941406,72.4919922 22.3066406,70.9314453 C21.9119141,69.7564453 21.5171875,68.5814453 21.1224609,67.9847656 M20.1402344,67.3972656 C20.1402344,67.3972656 21.1224609,68.7650391 21.9027344,71.3169922 C22.2974609,72.8867188 21.9027344,74.4564453 21.5080078,75.6314453 L19.1580078,74.2636719 L21.7007812,79.5511719 L24.8402344,75.2367188 L22.6830078,75.8242188 C23.0777344,75.0439453 23.4632812,74.0617187 24.0507812,72.6847656 C25.0330078,69.9400391 23.6560547,67.7828125 23.6560547,67.7828125 L20.1402344,67.3972656 L20.1402344,67.3972656 Z M35.6263672,75.0439453 L37.5816406,75.8242188 L37.5816406,75.6314453 C37.7744141,74.2636719 37.9763672,72.4919922 37.1869141,71.1242187 C36.4066406,69.5544922 35.6171875,68.5814453 35.2316406,67.9847656 L38.1691406,67.9847656 C38.1691406,67.9847656 39.5369141,69.7472656 39.1513672,72.4919922 C38.9585937,73.6669922 38.7566406,74.6492187 38.3710937,75.8242187 L38.1783203,76.4117187 L39.9408203,75.6314453 L38.1783203,79.3583984 L35.6263672,75.0439453 L35.6263672,75.0439453 Z" id="形状" fill="#000000"></path>
            <path d="M38.385744,67.9847656 C38.8061288,68.3794922 39.8424263,69.9400391 39.4318179,72.0972656 C39.2265136,73.2722656 39.011433,74.2544922 38.6008246,75.4294922 L38.1804398,76.4117187 L39.2265136,75.8242187 L39.8522027,75.4294922 L38.3955204,78.1742187 L36.3131491,75.4294922 L37.359223,75.8242187 L37.984912,76.0169922 L38.1902162,75.4294922 C38.3955204,74.0617187 38.610601,72.2900391 37.7698314,70.7294922 C37.1441424,69.5544922 36.5184533,68.5722656 35.8927643,67.9847656 L38.385744,67.9847656 M38.5910482,67.5992188 L34.8369141,67.5992188 C34.8369141,67.5992188 36.0882921,68.7742188 37.3396702,71.1242187 C38.1706634,72.4919922 37.9653592,74.2636719 37.760055,75.6314453 L35.0519947,74.6492187 L38.6008246,79.3492187 L41.1035807,74.6492187 L39.0212094,75.6314453 C39.2265136,74.8511719 39.6468985,73.6761719 39.8522027,72.2992187 C40.4778917,69.3617188 38.5910482,67.5992188 38.5910482,67.5992188 L38.5910482,67.5992188 Z" id="形状" fill="#000000"></path>
            <path d="M71.0875,75.6314453 L73.0427734,76.2189453 L72.85,75.6314453 C72.4552734,74.6492187 71.8677734,73.6761719 71.4822266,72.4919922 C70.5,69.9492187 71.8769531,67.9847656 71.8769531,67.7919922 L74.6216797,67.3972656 C74.2269531,67.9847656 73.6394531,69.1597656 73.2539062,70.9222656 C72.8591797,72.4919922 73.2539062,74.2544922 73.6486328,75.4294922 L73.6486328,75.6222656 L75.6039062,74.6400391 L73.6302734,78.7617188 L71.0875,75.6314453 L71.0875,75.6314453 Z" id="路径" fill="#000000"></path>
            <path d="M74.4083323,67.9847656 C73.9730065,68.5722656 73.5478045,69.7472656 73.1124788,71.1242187 C72.677153,72.6939453 73.1124788,74.6492188 73.5478045,75.8242188 L73.7604055,76.4117188 L74.4083323,76.2189453 L75.4915848,75.6314453 L73.9730065,78.7617188 L72.0292262,76.4117188 L72.677153,76.6044922 L73.7604055,76.9992187 L73.3250797,76.0169922 C72.8897539,75.0347656 72.2418272,74.0617187 71.8166252,72.8775391 C70.9560975,70.7203125 71.8166252,69.1505859 72.0292262,68.5630859 L74.4083323,67.9847656 M75.4915848,67.3972656 L71.6040243,67.9847656 C71.6040243,67.9847656 70.0955698,70.1419922 71.1686985,72.8867188 C71.6040243,74.2544922 72.251951,75.2367187 72.677153,76.0261719 L70.2980469,75.4386719 L73.7604055,79.753125 L76.5647135,74.465625 L73.9730065,75.8242188 C73.5376807,74.6492188 73.1124788,72.8867188 73.5376807,71.5097656 C74.4083323,68.5814453 75.4915848,67.3972656 75.4915848,67.3972656 L75.4915848,67.3972656 Z" id="形状" fill="#000000"></path>
            <path d="M55.0230469,75.2367187 L56.7855469,76.0169922 L56.5927734,75.4294922 C56.4,74.4472656 56.0052734,73.2722656 55.8125,72.0972656 C55.225,69.3525391 56.9875,67.5900391 56.9875,67.5900391 L59.7322266,67.5900391 C59.3375,68.1775391 58.5572266,69.1597656 57.7769531,70.7294922 C56.9966797,72.0972656 57.1894531,74.0617188 57.3822266,75.2367188 L57.3822266,75.4294922 L59.3375,74.6492188 L56.5927734,78.3761719 L55.0230469,75.2367188 L55.0230469,75.2367187 Z" id="路径" fill="#000000"></path>
            <path d="M59.6545052,67.9847656 C59.2334635,68.5722656 58.4011719,69.5544922 57.7745052,70.7294922 C56.9422135,72.2992188 57.1478385,74.0617187 57.3534635,75.4294922 L57.5590885,76.0169922 L58.1857552,75.8242188 L59.2334635,75.4294922 L57.1478385,78.1742188 L55.6888802,75.4294922 L56.3155469,75.8242188 L57.3632552,76.4117188 L56.9422135,75.4294922 C56.7365885,74.4472656 56.3155469,73.2722656 56.1099219,72.0972656 C55.6888802,69.9400391 56.7365885,68.3703125 57.1576302,67.9847656 L59.6545052,67.9847656 M60.7022135,67.5992188 L56.9422135,67.5992188 C56.9422135,67.5992188 55.0622135,69.3617188 55.6888802,72.2992188 C55.8945052,73.6669922 56.3155469,74.8419922 56.5211719,75.6314453 L54.4355469,74.6492188 L56.9422135,79.3492188 L60.4965885,74.6492188 L57.7842969,75.6314453 C57.5786719,74.4564453 57.3632552,72.6939453 58.2053385,71.1242188 C59.4488802,68.7742188 60.7022135,67.5992188 60.7022135,67.5992188 L60.7022135,67.5992188 Z" id="形状" fill="#000000"></path>
        </g>
    </g>
</svg>