<?xml version="1.0" encoding="UTF-8"?>
<svg width="94px" height="94px" viewBox="0 0 94 94" version="1.1" xmlns="http://www.w3.org/2000/svg" xmlns:xlink="http://www.w3.org/1999/xlink">
    <title>摄像头</title>
    <g id="页面-1" stroke="none" stroke-width="1" fill="none" fill-rule="evenodd">
        <g id="摄像头" fill-rule="nonzero">
            <rect id="矩形" fill="#000000" opacity="0" x="0" y="0" width="94" height="94"></rect>
            <g id="编组-18" transform="translate(7.000000, 11.000000)">
                <path d="M4.24557001,22.3508695 L10.2395923,27.6272477 L78.086919,7.54965818 C78.086919,7.54965818 78.596478,5.41881314 77.6444073,1.79240607 C77.3672788,0.742424456 76.3571005,0.124788215 75.378211,0.411547898 C64.7623996,3.54384598 14.2713658,17.9788873 4.56739671,20.749427 C3.8924546,20.9435412 3.70472235,21.8744073 4.24557001,22.3508695 Z" id="路径" fill="#F96C4B"></path>
                <path d="M73.22376,1.8850515 C73.22376,1.8850515 74.506597,7.81877111 74.506597,8.08347236 C74.506597,8.3481736 77.5237223,7.51436468 77.5237223,7.51436468 L76.5180139,0.888010142 L73.22376,1.8850515 L73.22376,1.8850515 Z" id="路径" fill="#E54F2C"></path>
                <path d="M7.45042759,29.4228045 C7.24034627,29.4228045 7.03473476,29.3478058 6.8693516,29.2110435 L0.642898861,23.9699588 C0.12642841,23.5297239 -0.103592171,22.8452476 0.0439436082,22.1876371 C0.186977698,21.5391191 0.669717753,21.0273633 1.29996171,20.8464841 L18.9720654,15.9129832 C19.4458658,15.7806326 19.9420153,16.0497455 20.0761098,16.5173844 C20.2102042,16.9850232 19.9375455,17.4747205 19.4637451,17.6070712 L1.7916414,22.5405721 C1.7916414,22.5405721 1.77376214,22.597924 1.80505084,22.6243942 L7.66050891,27.5566607 L76.6342291,7.39524912 C76.7102159,6.61879213 76.7415046,4.92911584 76.0844418,2.55562799 C76.0039851,2.26004494 75.8162529,2.02181381 75.5659432,1.88063982 C75.3486673,1.75850929 75.090111,1.72979998 74.8507728,1.80122944 C67.2565565,4.01589654 40.0811092,11.773493 18.5321295,17.8660333 C18.0583291,17.998384 17.4583441,17.700951 17.3242496,17.2333121 C17.1901552,16.7656732 17.4791069,16.3455213 17.9529073,16.2131707 C39.4974172,10.1206303 66.7559372,2.32180856 74.3456836,0.111553152 C75.0519144,-0.0957961574 75.7939038,-0.011974096 76.4375572,0.345372587 C77.1124993,0.715954332 77.5997092,1.33800226 77.8097905,2.09240081 C78.8646669,5.8908637 78.3327589,8.18935286 78.3104098,8.28640998 C78.2344229,8.5952281 78.0019926,8.83787091 77.6935753,8.93051635 L7.70073725,29.387511 C7.62028057,29.4095694 7.53535408,29.4228045 7.45042759,29.4228045 Z" id="路径" fill="#010101"></path>
                <path d="M66.2463783,11.7187028 L69.2342184,27.1904907 L72.2399497,25.8052208 C73.5138073,25.2184664 74.6123306,24.1199562 75.3458722,22.6464526 C76.7163425,19.8979713 78.3050863,14.8686476 76.8308466,7.85406461 L66.2463783,11.7187028 Z" id="路径" fill="#FFE164"></path>
                <polygon id="路径" fill="#FC9642" points="22.0399048 24.0317225 33.603317 40.0196777 70.07701 26.550796 66.3447142 11.0790081"></polygon>
                <path d="M22.2857446,24.3890691 L9.81942971,28.033123 L17.3957667,42.7725707 C18.307609,44.5504807 20.3369051,45.3666429 22.1650596,44.6916547 L33.8491569,40.3770244 L22.2857446,24.3890691 L22.2857446,24.3890691 Z" id="路径" fill="#FFE164"></path>
                <path d="M74.5915235,9.27903965 C74.5915235,9.27903965 77.2063654,20.5950179 70.07701,25.9993351 C73.1343637,25.3199352 76.7415046,23.3832044 77.8500188,17.0436096 C78.958533,10.7040147 77.1169691,8.53787616 77.1169691,8.53787616 L74.5915235,9.27903965 L74.5915235,9.27903965 Z" id="路径" fill="#FCC25B"></path>
                <path d="M52.0636543,44.9828261 C52.3184337,44.9828261 52.5642736,45.0048845 52.8101134,45.0357664 L49.4845708,34.2403672 L43.1016746,36.5962083 L46.7132853,48.3180618 C47.7324032,46.3328025 49.7482899,44.9828261 52.0636543,44.9828261 L52.0636543,44.9828261 Z" id="路径" fill="#F76439"></path>
                <polygon id="路径" fill="#E54F2C" points="45.7880336 35.9697487 48.5727285 45.4328182 51.1473421 45.0578248 48.4699228 35.1624099"></polygon>
                <path d="M31.4801547,41.766706 C31.1985564,41.766706 30.9214278,41.6343553 30.7515748,41.3961242 L19.1881626,25.4081689 C19.0183096,25.1743495 18.9780813,24.8787664 19.0719474,24.6096535 C19.1658135,24.3405406 19.3848345,24.1331913 19.661963,24.0493692 L63.9667725,11.0966549 C64.2036727,11.0260679 64.4539823,11.0569497 64.6685335,11.1804769 C64.8830846,11.3040042 65.0350583,11.5025301 65.0886961,11.7407612 L68.8209919,27.2125491 C68.9237976,27.6448945 68.6868974,28.0860632 68.2667348,28.244884 L31.7930418,41.709354 C31.6902361,41.7446475 31.5829605,41.766706 31.4801547,41.766706 L31.4801547,41.766706 Z M21.3739023,25.3905222 L31.8109211,39.8167401 L66.8989713,26.8596141 L63.5689589,13.0510324 L21.3739023,25.3905222 Z" id="形状" fill="#010101"></path>
                <path d="M18.4998111,46.310744 C16.7565831,46.310744 15.0804023,45.3313494 14.2311374,43.6769666 L11.8576655,39.0579299 C11.6341747,38.6211728 11.8084975,38.0917703 12.2510092,37.871186 C12.693521,37.6506016 13.2298988,37.8226574 13.4533896,38.2594145 L15.8268615,42.8784512 C16.5375621,44.2637211 18.0796484,44.8901807 19.4876402,44.3696016 L30.0811025,40.4564348 L19.5591573,25.9199247 L8.72879477,29.0875163 L13.8121485,38.9678456 C14.0356392,39.4046027 13.8613164,39.9340052 13.4188047,40.1545895 C12.976293,40.3751739 12.4399152,40.2031181 12.2164244,39.766361 L6.64586083,28.9419306 C6.52517582,28.7081111 6.51623619,28.4345865 6.62351175,28.1919437 C6.73078732,27.9493009 6.93639883,27.7684217 7.1911783,27.693423 L19.6574932,24.0493692 C20.0240181,23.9434887 20.4173618,24.0758393 20.6408526,24.3846575 L32.2042648,40.3726127 C32.3651782,40.5976088 32.4143461,40.8799568 32.3338895,41.144658 C32.2534328,41.4093593 32.0522911,41.6167086 31.7930418,41.7137657 L20.1089446,46.028396 C19.5815064,46.2180986 19.0361889,46.310744 18.4998111,46.310744 Z M67.9538477,28.2978242 C67.8108136,28.2978242 67.6633097,28.2625307 67.5336851,28.1919437 C67.3057245,28.0728282 67.1448111,27.8654788 67.0867035,27.6184243 L63.3544078,12.1466365 C63.2426624,11.6922327 63.5153211,11.2290055 63.9712423,11.0966549 L77.1884862,7.23201668 C77.4209166,7.16584137 77.6712262,7.19231149 77.8813075,7.31142706 C78.0913889,7.43054262 78.2478324,7.62465686 78.30594,7.8584763 C80.1877322,15.0230567 78.2791211,20.2288479 76.3481609,23.3346758 C75.3420153,24.9498554 73.8197206,26.1884848 72.0213797,26.8552024 L68.2667348,28.2404723 C68.163929,28.2801775 68.0566535,28.2978242 67.9538477,28.2978242 L67.9538477,28.2978242 Z M65.285368,12.5525117 L68.5840917,26.2375662 L71.3866659,25.2008196 C72.8035973,24.6758288 74.0193871,23.6876108 74.8150142,22.4082215 C76.4867252,19.7215038 78.1316172,15.2921696 76.781733,9.19080591 L65.285368,12.5525117 Z" id="形状" fill="#010101"></path>
                <path d="M74.5710331,71.1176625 L77.774032,71.1176625 L77.774032,37.4741341 L74.5710331,37.4741341 C73.254237,37.4741341 72.1867628,39.176739 72.1867628,41.2770087 L72.1867628,67.3147879 C72.1867628,69.4150576 73.254237,71.1176625 74.5710331,71.1176625 L74.5710331,71.1176625 Z" id="路径" fill="#F68F32"></path>
                <polygon id="路径" fill="#E0761E" points="76.3615703 37.8579509 78.8154989 37.8579509 78.8154989 70.6941405 76.3615703 70.6941405"></polygon>
                <path d="M79.1015671,72 L73.9299908,72 C71.3151488,72 69.1830469,69.9000368 69.1830469,67.3147879 L69.1830469,41.2770087 C69.1830469,38.6961715 71.310679,36.5917966 73.9299908,36.5917966 L79.1060369,36.5917966 C79.5977166,36.5917966 80,36.9888485 80,37.4741341 L80,71.1176625 C79.9955302,71.6029481 79.5977166,72 79.1015671,72 Z M73.9299908,38.3564716 C72.2985082,38.3564716 70.9709731,39.6667427 70.9709731,41.2770087 L70.9709731,67.3147879 C70.9709731,68.9250539 72.2985082,70.235325 73.9299908,70.235325 L78.2120739,70.235325 L78.2120739,38.3564716 L73.9299908,38.3564716 L73.9299908,38.3564716 Z" id="形状" fill="#010101"></path>
                <path d="M55.5992782,48.3180618 C56.2518712,49.3195149 56.6318055,50.5283172 56.6318055,51.829765 C56.6318055,53.1312128 56.2518712,54.3400152 55.5992782,55.3414682 L70.07701,55.3414682 L70.07701,48.3180618 L55.5992782,48.3180618 L55.5992782,48.3180618 Z" id="路径" fill="#F76439"></path>
                <path d="M58.5493563,48.3180618 C58.5493563,48.3180618 60.203188,51.9841741 58.5493563,55.3414682 L56.0507295,55.3414682 C56.0507295,55.3414682 58.2856372,52.1871117 56.0507295,48.3180618 C57.5794064,48.6709968 58.5493563,48.3180618 58.5493563,48.3180618 Z M67.4576982,48.8651111 L70.07701,48.8651111 L70.07701,55.3414682 L67.4576982,55.3414682 L67.4576982,48.8651111 Z" id="形状" fill="#E54F2C"></path>
                <path d="M70.07701,56.2238057 L55.5992782,56.2238057 C55.2729817,56.2238057 54.973504,56.0473382 54.8170605,55.7649902 C54.660617,55.4826422 54.6740264,55.1385306 54.8483492,54.865006 C55.4294252,53.9650217 55.7378425,52.9194518 55.7378425,51.829765 C55.7378425,50.7400782 55.4294252,49.6900966 54.8483492,48.7945241 C54.6740264,48.5209994 54.660617,48.1768878 54.8170605,47.8945398 C54.973504,47.6121918 55.2729817,47.4357243 55.5992782,47.4357243 L70.07701,47.4357243 C70.5686897,47.4357243 70.9709731,47.8327762 70.9709731,48.3180618 L70.9709731,55.3414682 C70.9709731,55.8267538 70.5686897,56.2238057 70.07701,56.2238057 L70.07701,56.2238057 Z M57.0430285,54.4591307 L69.1830469,54.4591307 L69.1830469,49.2003993 L57.0430285,49.2003993 C57.3603854,50.0297965 57.5257686,50.9209574 57.5257686,51.829765 C57.5257686,52.7385726 57.3603854,53.6253218 57.0430285,54.4591307 L57.0430285,54.4591307 Z M45.2158972,49.7474485 C45.1890783,49.7474485 45.1622594,49.7474485 45.1354405,49.7430369 C44.7733855,49.712155 44.4649682,49.4651006 44.3576927,49.1209889 L40.7460819,37.3991354 C40.6075176,36.953555 40.8444178,36.4815044 41.2869295,36.3138603 L47.6698258,33.9580192 C47.8977864,33.8741971 48.1570357,33.8830205 48.3805264,33.9933127 C48.6040172,34.0991932 48.7694004,34.2933074 48.8409174,34.5271269 L52.16646,45.322526 C52.2558563,45.6092857 52.1888091,45.9181039 51.9921372,46.1475116 C51.7954653,46.3769193 51.4959877,46.4916232 51.1965101,46.451918 C50.9551401,46.4210362 50.7539984,46.4078012 50.5662661,46.4078012 C48.6621248,46.4078012 46.914427,47.497488 46.0115243,49.2577512 C45.8620915,49.5568982 45.5538204,49.7466347 45.2158972,49.7474485 L45.2158972,49.7474485 Z M42.703861,37.6814834 L45.5332541,46.8710283 C46.722225,45.5872273 48.3402981,44.7931236 50.0924657,44.6695963 L47.4061067,35.9476902 L42.703861,37.6814834 L42.703861,37.6814834 Z" id="形状" fill="#010101"></path>
                <path d="M46.7401042,51.5033002 C46.7401042,54.6001014 49.2836351,57.1105549 52.4212395,57.1105549 C55.5588439,57.1105549 58.1023748,54.6001014 58.1023748,51.5033002 C58.1023748,48.4064989 55.5588439,45.8960454 52.4212395,45.8960454 C49.2836351,45.8960454 46.7401042,48.4064989 46.7401042,51.5033002 L46.7401042,51.5033002 Z" id="路径" fill="#FFE164"></path>
                <path d="M51.1473421,46.2357453 C51.1473421,46.2357453 54.392428,49.0812837 54.392428,51.5033002 C54.392428,53.9253166 54.3477299,55.359115 52.16646,57.3046691 C52.8503418,57.348786 56.4887714,55.9546928 56.4887714,50.7136081 C56.233992,48.7680539 53.6370293,45.6445792 51.1473421,46.2357453 Z" id="路径" fill="#FCC25B"></path>
                <path d="M50.5662661,59.0031688 C46.7266948,59.0031688 43.6067637,55.782637 43.6067637,51.8253533 C43.6067637,47.8680697 46.7311646,44.6475379 50.5662661,44.6475379 C54.4013677,44.6475379 57.5257686,47.8680697 57.5257686,51.8253533 C57.5257686,55.782637 54.4058375,59.0031688 50.5662661,59.0031688 Z M50.5662661,46.4166245 C47.714524,46.4166245 45.3946898,48.8430526 45.3946898,51.829765 C45.3946898,54.8164774 47.714524,57.2429055 50.5662661,57.2429055 C53.4180083,57.2429055 55.7378425,54.8164774 55.7378425,51.829765 C55.7378425,48.8430526 53.4180083,46.4166245 50.5662661,46.4166245 Z" id="形状" fill="#010101"></path>
            </g>
        </g>
    </g>
</svg>