<?xml version="1.0" encoding="UTF-8"?>
<svg width="94px" height="94px" viewBox="0 0 94 94" version="1.1" xmlns="http://www.w3.org/2000/svg" xmlns:xlink="http://www.w3.org/1999/xlink">
    <title>IT应用系统数据调整流程-01备份 3</title>
    <g id="页面-1" stroke="none" stroke-width="1" fill="none" fill-rule="evenodd">
        <g id="IT应用系统数据调整流程-01备份-3">
            <rect id="矩形" fill="#000000" fill-rule="nonzero" opacity="0" x="0" y="0" width="94" height="94"></rect>
            <rect id="矩形" fill="#CBE4FE" x="20" y="22" width="65" height="45" rx="3"></rect>
            <g id="编组-10" transform="translate(7.000000, 12.000000)" fill="#1B81FC" fill-rule="nonzero">
                <path d="M72.1428571,57.8667115 L7.85714288,57.8667115 C3.5714286,57.8667115 0,54.4787307 0,50.4131539 L0,7.45355764 C0,3.38798072 3.5714286,0 7.85714288,0 L72.1428571,0 C76.4285714,0 80,3.3879808 80,7.45355764 L80,50.5486731 C80,54.61425 76.4285714,57.8667115 72.1428571,57.8667115 Z M6.50455935,3.20056056 C4.41094236,3.20056056 2.7659575,4.75194858 2.7659575,6.72644244 L2.7659575,51.5756606 C2.7659575,53.5501545 4.41094227,55.1015426 6.50455935,55.1015426 L73.7993921,55.1015426 C75.8930091,55.1015426 77.5379939,53.5501546 77.5379939,51.5756606 L77.5379939,6.72644244 C77.5379939,4.75194858 75.8930091,3.20056056 73.7993921,3.20056056 L6.50455935,3.20056056 Z" id="形状"></path>
                <path d="M40,70.47 C38.8571429,70.47 37.8571429,69.6163414 37.8571429,68.6407317 L37.8571429,57.2992683 C37.8571429,56.3236586 38.8571429,55.47 40,55.47 C41.1428571,55.47 42.1428571,56.3236586 42.1428571,57.2992683 L42.1428571,68.6407317 C42.1428571,69.6163414 41.1428571,70.47 40,70.47 Z" id="形状"></path>
                <path d="M66.4285714,70.47 L13.4285714,70.47 C12.2857143,70.47 11.2857143,69.5213654 11.2857143,68.4372115 C11.2857143,67.3530577 12.2857143,66.4044231 13.4285714,66.4044231 L66.4285714,66.4044231 C67.5714285,66.4044231 68.5714285,67.3530577 68.5714285,68.4372115 C68.5714285,69.5213654 67.7142857,70.47 66.4285714,70.47 L66.4285714,70.47 Z" id="形状"></path>
            </g>
            <text id="AC" font-family="PingFangSC-Medium, PingFang SC" font-size="24" font-weight="400" fill="#1B81FC">
                <tspan x="30" y="49">AC</tspan>
            </text>
        </g>
    </g>
</svg>