<?xml version="1.0" encoding="UTF-8"?>
<svg width="90px" height="90px" viewBox="0 0 90 90" version="1.1" xmlns="http://www.w3.org/2000/svg" xmlns:xlink="http://www.w3.org/1999/xlink">
    <title>电风扇</title>
    <g id="页面-1" stroke="none" stroke-width="1" fill="none" fill-rule="evenodd">
        <g id="电风扇" fill-rule="nonzero">
            <rect id="矩形" fill="#000000" opacity="0" x="0" y="0" width="90" height="90"></rect>
            <g id="编组-19" transform="translate(15.000000, 6.000000)">
                <polygon id="路径" fill="#6FA1FF" points="37.4023438 72.3144531 21.6210938 72.3144531 23.6523438 53.4570312 35.3710938 53.4570312"></polygon>
                <path d="M11.5917969,70.4199219 L47.4316406,70.4199219 C49.2089844,70.4199219 50.6542969,71.8652344 50.6542969,73.6425781 C50.6542969,75.4199219 49.2089844,76.8652344 47.4316406,76.8652344 L11.5917969,76.8652344 C9.81445313,76.8652344 8.36914062,75.4199219 8.36914062,73.6425781 C8.36914062,71.8554688 9.81445313,70.4199219 11.5917969,70.4199219 Z" id="路径" fill="#6FA1FF"></path>
                <path d="M0.68359375,29.6972656 C0.68359375,40.0628523 6.17820315,49.6410495 15.0976561,54.8238429 C24.0171091,60.0066363 35.0063284,60.0066363 43.9257814,54.8238429 C52.8452344,49.6410495 58.3398438,40.0628523 58.3398438,29.6972656 C58.3398438,19.3316789 52.8452344,9.75348176 43.9257814,4.57068836 C35.0063284,-0.612105031 24.0171091,-0.612105031 15.0976561,4.57068836 C6.17820315,9.75348176 0.68359375,19.3316789 0.68359375,29.6972656 Z" id="路径" fill="#FFFFFF"></path>
                <path d="M13.3984375,29.6972656 C13.3984375,35.4888759 16.4696114,40.8405445 21.455078,43.7363496 C26.4405446,46.6321548 32.5828929,46.6321548 37.5683595,43.7363496 C42.5538261,40.8405445 45.625,35.4888759 45.625,29.6972656 C45.625,20.7442121 38.4108383,13.4863281 29.5117187,13.4863281 C20.6125992,13.4863281 13.3984375,20.7442121 13.3984375,29.6972656 L13.3984375,29.6972656 Z" id="路径" fill="#6FA1FF"></path>
                <path d="M50.1953125,28.6816406 C49.4335937,28.6816406 48.7695312,28.1152344 48.6816406,27.34375 C47.5097656,17.6074219 39.2773438,10.2539062 29.5117188,10.2539062 C28.671875,10.2539062 27.9882813,9.5703125 27.9882813,8.73046875 C27.9882813,7.890625 28.671875,7.20703125 29.5117188,7.20703125 C40.8105469,7.20703125 50.3515625,15.7128906 51.7089844,26.9726562 C51.8066406,27.8027344 51.2109375,28.5644531 50.3808594,28.671875 C50.3125,28.6816406 50.2539062,28.6816406 50.1953125,28.6816406 L50.1953125,28.6816406 Z M10.2539062,39.21875 C9.65820312,39.21875 9.08203125,38.8671875 8.83789062,38.2714844 C7.72460937,35.546875 7.1484375,32.6660156 7.1484375,29.6875 C7.1484375,26.1035156 7.95898438,22.6660156 9.58007812,19.4921875 C11.1132812,16.4648438 13.359375,13.7695312 16.0644531,11.71875 C16.7382812,11.2109375 17.6855469,11.3476562 18.1933594,12.0117188 C18.7011719,12.6855469 18.5644531,13.6328125 17.9003906,14.140625 C15.5664062,15.9179687 13.6230469,18.2324219 12.2949219,20.859375 C10.9082031,23.6035156 10.2050781,26.5820312 10.2050781,29.6777344 C10.2050781,32.2460938 10.6933594,34.7460937 11.6601562,37.0996094 C11.9726562,37.8808594 11.6113281,38.7695312 10.8300781,39.0917969 C10.6347656,39.1796875 10.4492188,39.21875 10.2539062,39.21875 Z M29.5117188,52.1875 C26.328125,52.1875 23.2617187,51.5234375 20.390625,50.234375 C19.6191406,49.8925781 19.2871094,48.984375 19.6289062,48.2226562 C19.9707031,47.4511719 20.8789062,47.1191406 21.640625,47.4609375 C24.1308594,48.5644531 26.7675781,49.140625 29.5117188,49.140625 C36.7089844,49.140625 43.2617188,45.1464844 46.6210938,38.7304687 C47.0117188,37.9882812 47.9296875,37.6953125 48.671875,38.0761719 C49.4140625,38.4667969 49.7070313,39.3847656 49.3261719,40.1269531 C45.4394531,47.5585937 37.8515625,52.1875 29.5117188,52.1875 Z" id="形状" fill="#92E7E6"></path>
                <path d="M33.75,28.3105469 L25.0390625,28.3105469 L22.9589844,12.4707031 C22.4511719,8.58398437 25.4785156,5.12695312 29.3945313,5.12695312 C33.3105469,5.12695312 36.3378906,8.58398438 35.8300781,12.4707031 L33.75,28.3105469 Z" id="路径" fill="#F8476B"></path>
                <path d="M26.4453125,26.2890625 L30.8007812,33.8378906 L18.1347656,43.5449219 C15.0195312,45.9277344 10.5175781,45.0390625 8.5546875,41.6308594 C6.59179687,38.2324219 8.06640625,33.8769531 11.6894531,32.3730469 L26.4453125,26.2890625 L26.4453125,26.2890625 Z" id="路径" fill="#F8476B"></path>
                <path d="M28.3398438,33.6328125 L32.6953125,26.0839844 L47.4414062,32.1972656 C51.0644531,33.7011719 52.5390625,38.046875 50.5761719,41.4550781 C48.6132812,44.8535156 44.1015625,45.7519531 40.9960938,43.3691406 L28.3398438,33.6328125 Z" id="路径" fill="#F8476B"></path>
                <path d="M23.3203125,29.4140625 C23.3203125,32.8334818 26.0922995,35.6054688 29.5117187,35.6054688 C32.931138,35.6054688 35.703125,32.8334818 35.703125,29.4140625 C35.703125,25.9946432 32.931138,23.2226562 29.5117187,23.2226562 C26.0922995,23.2226562 23.3203125,25.9946432 23.3203125,29.4140625 L23.3203125,29.4140625 Z" id="路径" fill="#FFEA6B"></path>
                <path d="M50.3808594,8.69140625 C44.8046875,3.0859375 37.3925781,0 29.5117187,0 C21.6308594,0 14.21875,3.0859375 8.64257812,8.69140625 C3.06640625,14.296875 0,21.7578125 0,29.6875 C0,33.1445312 0.5859375,36.5429688 1.73828125,39.765625 C2.8515625,42.8808594 4.48242187,45.7714844 6.5625,48.359375 C10.6054687,53.3789062 16.2207031,56.9726563 22.421875,58.515625 L21.2207031,69.7363281 L11.5917969,69.7363281 C9.43359375,69.7363281 7.68554687,71.484375 7.68554687,73.6425781 C7.68554687,75.8007812 9.43359375,77.5488281 11.5917969,77.5488281 L47.4316406,77.5488281 C49.5898437,77.5488281 51.3378906,75.8007812 51.3378906,73.6425781 C51.3378906,71.484375 49.5898437,69.7363281 47.4316406,69.7363281 L37.8027344,69.7363281 L36.6015625,58.515625 C42.8027344,56.9726563 48.4082031,53.3886719 52.4609375,48.359375 C54.5410156,45.7714844 56.1621094,42.8808594 57.2851562,39.765625 C58.4375,36.5429688 59.0234375,33.1542969 59.0234375,29.6972656 C59.0234375,21.7578125 55.9570312,14.296875 50.3808594,8.69140625 L50.3808594,8.69140625 Z M49.9707031,73.6425781 C49.9707031,75.0390625 48.828125,76.1816406 47.4316406,76.1816406 L11.5917969,76.1816406 C10.1953125,76.1816406 9.05273437,75.0390625 9.05273437,73.6425781 C9.05273437,72.2460937 10.1953125,71.1035156 11.5917969,71.1035156 L47.421875,71.1035156 C48.828125,71.1035156 49.9707031,72.2460937 49.9707031,73.6425781 Z M22.5976562,69.7363281 L23.7597656,58.8085937 C25.6445312,59.1796875 27.578125,59.375 29.5117187,59.375 C31.4453125,59.375 33.3691406,59.1894531 35.2636719,58.8085937 L36.4257812,69.7363281 L22.5976562,69.7363281 Z M55.9960937,39.296875 C54.9316406,42.265625 53.3789062,45.0292969 51.3964844,47.5 C47.4121094,52.4511719 41.8457031,55.9375 35.7128906,57.3242187 C31.6601562,58.2324219 27.3632812,58.2324219 23.3203125,57.3242187 C17.1875,55.9375 11.6113281,52.4511719 7.63671875,47.5097656 C5.65429687,45.0390625 4.1015625,42.2851562 3.03710937,39.3066406 C1.93359375,36.2304688 1.37695312,32.9980469 1.37695312,29.6875 C1.37695312,22.1191406 4.30664062,15.0097656 9.61914062,9.65820313 C14.9316406,4.31640625 21.9921875,1.3671875 29.5117187,1.3671875 C37.03125,1.3671875 44.0917969,4.31640625 49.4140625,9.65820312 C54.7363281,15.0097656 57.65625,22.1191406 57.65625,29.6875 C57.65625,32.9882812 57.0996094,36.2207031 55.9960937,39.296875 L55.9960937,39.296875 Z" id="形状" fill="#002DEA"></path>
                <path d="M47.7148437,31.5527344 L46.2597656,30.9570312 C46.2890625,30.5371094 46.3085937,30.1171875 46.3085937,29.6875 C46.3085937,26.25 45.2929687,22.9492187 43.3691406,20.1367187 C41.5917969,17.5292969 39.1503906,15.5078125 36.2988281,14.2382812 L36.5136719,12.5683594 C36.5527344,12.2460937 36.5820312,11.9335938 36.5820312,11.6210938 C36.5820312,9.70703125 35.8300781,7.91015625 34.4726562,6.55273438 C33.1152344,5.20507812 31.3183594,4.46289062 29.3945312,4.46289062 C27.3339844,4.46289062 25.3710937,5.3515625 24.0039062,6.90429688 C22.6367187,8.45703125 22.0117187,10.5273438 22.2753906,12.578125 L22.5,14.3359375 C16.5429687,17.0898438 12.7246094,23.0566406 12.7246094,29.6875 C12.7246094,30.234375 12.7441406,30.7421875 12.7832031,31.2207031 L11.4355469,31.7871094 C8.74023437,32.9003906 7.00195312,35.5078125 7.00195312,38.4375 C7.00195312,39.6777344 7.33398437,40.9179687 7.95898438,42.0214844 C8.99414063,43.8085937 10.7519531,45.0683594 12.7832031,45.4785156 C13.2519531,45.5664062 13.7207031,45.6152344 14.1894531,45.6152344 C15.7519531,45.6152344 17.2949219,45.1074219 18.5449219,44.140625 L19.5898438,43.3398437 C22.4804688,45.4785156 25.8984375,46.6015625 29.5019531,46.6015625 C33.1640625,46.6015625 36.7382812,45.390625 39.6289062,43.1835937 L40.5761719,43.9160156 C41.8261719,44.8730469 43.3789063,45.390625 44.9316406,45.390625 C47.4804688,45.390625 49.8730469,44.0136719 51.1621094,41.796875 C52.1972656,40 52.4121094,37.8515625 51.7382812,35.8886719 C51.09375,33.9257812 49.6191406,32.34375 47.7148437,31.5527344 L47.7148437,31.5527344 Z M42.2265625,20.8984375 C43.9941406,23.4863281 44.9316406,26.5234375 44.9316406,29.6875 C44.9316406,29.9316406 44.921875,30.1660156 44.9121094,30.4003906 L35.8203125,26.6308594 C35.5761719,26.0742187 35.2441406,25.546875 34.8632812,25.078125 L36.1035156,15.6542969 C38.5644531,16.8261719 40.6738281,18.6230469 42.2265625,20.8984375 L42.2265625,20.8984375 Z M28.7011719,34.8632812 C27.5683594,34.6875 26.5234375,34.1699219 25.703125,33.3789062 C25.5859375,33.2714844 25.4785156,33.1542969 25.3710937,33.0371094 C24.5019531,32.0410156 24.0234375,30.7519531 24.0234375,29.4238281 C24.0234375,28.8183594 24.1210937,28.2324219 24.296875,27.6757812 C24.5117187,27.0507813 24.8242187,26.4648438 25.2246094,25.9765625 C26.2695312,24.6582031 27.8320312,23.90625 29.5214844,23.90625 C31.09375,23.90625 32.5878906,24.5898438 33.6328125,25.7617188 L33.6914062,25.8203125 C34.0917969,26.2890625 34.4238281,26.8261719 34.6386719,27.3925781 C34.6484375,27.421875 34.6679687,27.4511719 34.6777344,27.4804688 C34.9121094,28.0957031 35.0292969,28.7402344 35.0292969,29.4042969 C35.0292969,32.0117187 33.1835938,34.2675781 30.6445312,34.7949219 C30.5761719,34.8046875 30.5175781,34.8242188 30.4589844,34.8535156 C30.1464844,34.9023437 29.8535156,34.9316406 29.53125,34.9316406 C29.2871094,34.921875 29.0332031,34.9023437 28.7011719,34.8632812 L28.7011719,34.8632812 Z M25.0292969,7.80273437 C26.1328125,6.54296875 27.7246094,5.83007812 29.3945312,5.83007812 L29.4140625,5.83007812 C30.9667969,5.83007812 32.4121094,6.42578125 33.5058594,7.51953125 C34.609375,8.61328125 35.2148437,10.078125 35.2148437,11.6210937 C35.2148437,11.875 35.1953125,12.1289062 35.1660156,12.3925781 L34.8925781,14.4628906 C34.8730469,14.5410156 34.8632812,14.609375 34.8632812,14.6875 L33.6425781,23.9160156 C32.4707031,23.0273438 31.0253906,22.5390625 29.5214844,22.5390625 C27.9101562,22.5390625 26.3867187,23.0957031 25.1757812,24.0917969 L23.9453125,14.8242188 C23.9550781,14.7167969 23.9453125,14.609375 23.90625,14.5019531 L23.6328125,12.4023437 C23.4082031,10.7421875 23.9160156,9.0625 25.0292969,7.80273437 L25.0292969,7.80273437 Z M22.6855469,15.7617188 L23.9550781,25.3613281 C23.6132812,25.8300781 23.3203125,26.3671875 23.1054687,26.9238281 L14.1210937,30.6542969 C14.1015625,30.3417969 14.0917969,30.0195312 14.0917969,29.6777344 C14.0917969,23.7402344 17.4316406,18.3789063 22.6855469,15.7617188 Z M17.7148437,43.0371094 C16.3964844,44.0527344 14.6875,44.4433594 13.046875,44.1210938 C11.40625,43.7988281 9.98046875,42.7734375 9.140625,41.328125 C8.6328125,40.4394531 8.359375,39.4335938 8.359375,38.4277344 C8.359375,36.0546875 9.765625,33.9453125 11.953125,33.046875 L13.7792969,32.2851562 L22.6855469,28.5839844 C22.65625,28.8574219 22.6367187,29.1308594 22.6367187,29.4140625 C22.6367187,31.0742188 23.2324219,32.6757812 24.3164062,33.9160156 C24.453125,34.0722656 24.5898437,34.21875 24.7363281,34.3554688 C25.4101562,35.0097656 26.2109375,35.5175781 27.0898437,35.8496094 L19.3164062,41.8066406 C19.2089844,41.8457031 19.1015625,41.9238281 19.0234375,42.0214844 L19.0039062,42.0410156 L17.7148437,43.0371094 L17.7148437,43.0371094 Z M20.7324219,42.4609375 L28.8378906,36.25 C29.0429687,36.2695312 29.2871094,36.2890625 29.53125,36.2890625 C29.8925781,36.2890625 30.234375,36.2597656 30.5859375,36.2109375 L38.5253906,42.2949219 C35.9179687,44.1894531 32.7539062,45.2149177 29.5117187,45.2149177 C26.328125,45.2246094 23.3105469,44.2675781 20.7324219,42.4609375 L20.7324219,42.4609375 Z M49.9902344,41.1035156 C48.9257812,42.9296875 47.0410156,44.0136719 44.9511719,44.0136719 C43.6914062,44.0136719 42.4316406,43.5839844 41.4257812,42.8222656 L40.1269531,41.8261719 C40.1074219,41.8066406 40.078125,41.7773437 40.0488281,41.7578125 L32.2265625,35.7519531 C34.7167969,34.6972656 36.4160156,32.2167969 36.4160156,29.4238281 C36.4160156,29.0527344 36.3867187,28.6816406 36.328125,28.3203125 L45.2539062,32.0214844 L45.2734375,32.0214844 L47.1972656,32.8125 C48.7402344,33.4570312 49.9316406,34.7265625 50.46875,36.3085937 C51.0058594,37.9003906 50.8300781,39.6484375 49.9902344,41.1035156 L49.9902344,41.1035156 Z" id="形状" fill="#002DEA"></path>
                <path d="M32.8320312,69.7363281 L26.3183594,69.7363281 L26.3183594,68.5449219 C26.3183594,67.9394531 26.8164063,67.4414062 27.421875,67.4414062 L31.71875,67.4414062 C32.3242188,67.4414062 32.8222656,67.9394531 32.8222656,68.5449219 L32.8222656,69.7363281 L32.8320312,69.7363281 Z" id="路径" fill="#FFEA6B"></path>
            </g>
        </g>
    </g>
</svg>