<?xml version="1.0" encoding="UTF-8"?>
<svg width="94px" height="94px" viewBox="0 0 94 94" version="1.1" xmlns="http://www.w3.org/2000/svg" xmlns:xlink="http://www.w3.org/1999/xlink">
    <title> 气表</title>
    <g id="页面-1" stroke="none" stroke-width="1" fill="none" fill-rule="evenodd">
        <g id="-气表">
            <rect id="矩形" fill="#000000" fill-rule="nonzero" opacity="0" x="0" y="0" width="94" height="94"></rect>
            <g id="编组-14" transform="translate(7.000000, 7.000000)">
                <path d="M5,0 L75,0 C77.7614237,0 80,2.23857625 80,5 L80,65 C80,67.7614237 77.7614237,70 75,70 L70,70 L66.38,77.235 C65.5336823,78.9286471 63.8033286,79.9989889 61.91,80 L18.09,80 C16.1966714,79.9989889 14.4663177,78.9286471 13.62,77.235 L10,70 L5,70 C2.23857625,70 0,67.7614237 0,65 L0,5 C0,2.23857625 2.23857625,0 5,0 Z M10.0221795,4.83948556 C7.26075573,4.83948556 5.02217948,7.07806181 5.02217948,9.83948556 L5.02217948,51.7543792 C5.02217948,54.5158029 7.26075573,56.7543792 10.0221795,56.7543792 L69.9072799,56.5852569 C72.6687037,56.5852569 74.9072799,54.3466807 74.9072799,51.5852569 L74.9072799,9.67036329 C74.9072799,6.90893955 72.6687037,4.67036329 69.9072799,4.67036329 L10.0221795,4.83948556 Z M17.5,60 C16.1192881,60 15,61.1192881 15,62.5 C15,63.8807119 16.1192881,65 17.5,65 C18.8807119,65 20,63.8807119 20,62.5 C20,61.1192881 18.8807119,60 17.5,60 Z M27.5,60 C26.1192881,60 25,61.1192881 25,62.5 C25,63.8807119 26.1192881,65 27.5,65 L52.5,65 C53.8807119,65 55,63.8807119 55,62.5 C55,61.1192881 53.8807119,60 52.5,60 L27.5,60 Z M62.5,60 C61.1192881,60 60,61.1192881 60,62.5 C60,63.8807119 61.1192881,65 62.5,65 C63.8807119,65 65,63.8807119 65,62.5 C65,61.1192881 63.8807119,60 62.5,60 Z" id="形状" fill="#1B81FC" fill-rule="nonzero"></path>
                <path d="M47.0924235,23.6706746 C47.3154662,24.7243609 47.2475836,25.806271 46.8863514,26.9164048 C46.3457152,28.5769016 46.0135755,28.5769016 45.438998,30.383221 C45.3202035,30.2232865 44.5589489,29.0896329 45.2086821,26.9140528 C45.7081039,24.3974359 44.4231838,21.8690591 42.6388419,19.2748269 C40.9102607,16.75821 38.3598156,14.8601634 35.954833,14.3827118 L35.8360385,14.3827118 L35.877253,14.5003107 C36.6603269,18.3410915 34.4323239,20.3426251 31.8042987,22.5770046 C29.1762734,24.8137361 26.303386,27.3891525 25.8645737,32.3988665 C25.2996937,38.9891101 29.7532753,43.6248595 32.4443343,45.7628079 C32.6043433,45.8804068 32.7667766,45.9203905 32.9461805,45.9203905 C33.2274083,45.9203905 33.4456023,45.8027916 33.6080356,45.6028734 C33.7583053,45.3854759 33.7741148,45.105795 33.64925,44.8737601 C31.5230709,39.4877295 35.877253,36.0209133 37.2615725,35.073066 C36.1172663,41.6303818 41.7369735,46.7859185 42.9903767,46.3578585 C48.1397546,44.6103385 51.4660006,41.0800189 52.2902889,36.3196145 C53.170338,31.2158214 50.9447594,25.5710731 47.2524324,23.7106582 L47.0924235,23.6706746 Z" id="路径" fill="#FC9642"></path>
            </g>
        </g>
    </g>
</svg>