<?xml version="1.0" encoding="UTF-8"?>
<svg width="94px" height="94px" viewBox="0 0 94 94" version="1.1" xmlns="http://www.w3.org/2000/svg" xmlns:xlink="http://www.w3.org/1999/xlink">
    <title>中央空调主机</title>
    <g id="页面-1" stroke="none" stroke-width="1" fill="none" fill-rule="evenodd">
        <g id="中央空调主机" fill-rule="nonzero">
            <rect id="矩形" fill="#000000" opacity="0" x="0" y="0" width="94" height="94"></rect>
            <path d="M79.9319337,72.0912637 L13.533753,72.0912637 C7.32975301,72.0912637 7.23076923,72.1238304 7.23076923,66.6114636 L7.23076923,20.0687461 C7.23076923,14.5563793 7.27196631,14.4615385 13.4759663,14.4615385 L79.9903055,14.4615385 C86.1943055,14.4615385 86.1912725,14.7076705 86.1912725,20.2200373 L86.1912725,66.5593294 C86.1912725,72.0716962 86.1359337,72.0912637 79.9319337,72.0912637 Z M13.8556276,16.7500189 C9.51357908,16.7500189 9.43174942,16.9138261 9.43174942,20.736104 L9.43174943,65.7971203 C9.43174943,69.6193981 9.3117354,69.7500189 13.6537839,69.7500189 L79.7866176,69.7500189 C84.1286661,69.7500189 84.4307692,69.7008755 84.4307692,65.8785977 L84.4307692,20.6242819 C84.4307692,16.8020041 84.3192476,16.7593488 79.977199,16.7593488 L13.8556276,16.7500189 Z" id="形状" fill="#000000"></path>
            <g id="编组-3" transform="translate(14.461538, 21.692308)">
                <path d="M6.862,8.77023077 L1.88,8.77023077 C0.846,8.77023077 9.09494702e-13,7.92423077 9.09494702e-13,6.89023077 C9.09494702e-13,5.85623077 0.846,5.01023077 1.88,5.01023077 L6.909,5.01023077 C7.943,5.01023077 8.789,5.85623077 8.789,6.89023077 C8.789,7.92423077 7.896,8.77023077 6.862,8.77023077 Z M6.862,24.8413846 L1.88,24.8413846 C0.846,24.8413846 0,23.9953846 0,22.9613846 C0,21.9273846 0.846,21.0813846 1.88,21.0813846 L6.909,21.0813846 C7.943,21.0813846 8.789,21.9273846 8.789,22.9613846 C8.789,23.9953846 7.896,24.8413846 6.862,24.8413846 Z M6.862,33.5721538 L1.88,33.5721538 C0.846,33.5721538 0,32.7261538 0,31.6921538 C0,30.6581538 0.846,29.8121538 1.88,29.8121538 L6.909,29.8121538 C7.943,29.8121538 8.789,30.6581538 8.789,31.6921538 C8.789,32.7261538 7.896,33.5721538 6.862,33.5721538 Z M6.862,42.3029231 L1.88,42.3029231 C0.846,42.3029231 0,41.4569231 0,40.4229231 C0,39.3889231 0.846,38.5429231 1.88,38.5429231 L6.909,38.5429231 C7.943,38.5429231 8.789,39.3889231 8.789,40.4229231 C8.789,41.4569231 7.896,42.3029231 6.862,42.3029231 Z M37.206,3 C47.8223819,3 56.412,11.5896181 56.412,22.206 C56.412,32.8223819 47.8223819,41.412 37.206,41.412 C26.5896181,41.412 18,32.8223819 18,22.206 C18,11.5896181 26.5896181,3 37.206,3 M37.466,0 C25.058,0 15,10.058 15,22.466 C15,34.874 25.058,44.932 37.466,44.932 C49.874,44.932 59.932,34.874 59.932,22.466 C59.932,10.058 49.827,0 37.466,0 Z" id="形状" fill="#000000"></path>
                <path d="M18.471,22.466 C18.471,29.1490102 22.0363433,35.3243664 27.8239999,38.6658715 C33.6116565,42.0073767 40.7423435,42.0073767 46.5300001,38.6658715 C52.3176567,35.3243664 55.883,29.1490102 55.883,22.466 C55.883,15.7829898 52.3176567,9.60763369 46.5300001,6.26612856 C40.7423435,2.92462344 33.6116565,2.92462344 27.8239999,6.26612856 C22.0363433,9.60763369 18.471,15.7829898 18.471,22.466 L18.471,22.466 Z" id="路径" fill="#FFB208"></path>
                <path d="M37.177,7.52 C45.402,7.52 52.123,14.241 52.123,22.466 C52.123,30.691 45.402,37.412 37.177,37.412 C28.952,37.412 22.231,30.691 22.231,22.466 C22.231,14.241 28.952,7.52 37.177,7.52 M37.177,3.76 C26.837,3.76 18.471,12.126 18.471,22.466 C18.471,32.806 26.837,41.172 37.177,41.172 C47.517,41.172 55.883,32.806 55.883,22.466 C55.883,12.126 47.517,3.76 37.177,3.76 L37.177,3.76 Z" id="形状" fill="#FFFFFF"></path>
                <path d="M37.177,24.346 C36.613,24.346 36.096,24.111 35.72,23.641 C33.511,20.915 32.759,17.954 33.464,14.758 C33.699,13.724 34.686,13.113 35.72,13.348 C36.754,13.583 37.365,14.57 37.13,15.604 C36.66,17.672 37.13,19.458 38.634,21.291 C39.292,22.09 39.151,23.265 38.352,23.923 C38.023,24.205 37.6,24.346 37.177,24.346 L37.177,24.346 Z" id="路径" fill="#FFFFFF"></path>
                <path d="M31.725,26.461 C30.973,26.461 30.221,26.367 29.469,26.226 C28.435,25.991 27.824,25.004 28.059,23.97 C28.294,22.936 29.281,22.325 30.315,22.56 C32.383,23.03 34.169,22.56 36.002,21.056 C36.801,20.398 37.976,20.539 38.634,21.338 C39.292,22.137 39.151,23.312 38.352,23.97 C36.284,25.615 34.075,26.461 31.725,26.461 Z" id="路径" fill="#FFFFFF"></path>
                <path d="M38.634,31.584 C37.6,31.349 36.989,30.362 37.224,29.328 C37.694,27.26 37.224,25.474 35.72,23.641 C35.062,22.842 35.203,21.667 36.002,21.009 C36.801,20.351 37.976,20.492 38.634,21.291 C40.843,24.017 41.595,26.978 40.89,30.174 C40.702,31.02 39.903,31.631 39.057,31.631 C38.916,31.631 38.775,31.631 38.634,31.584 Z" id="路径" fill="#FFFFFF"></path>
                <path d="M37.177,24.346 C36.613,24.346 36.096,24.111 35.72,23.641 C35.062,22.842 35.203,21.667 36.002,21.009 C38.728,18.8 41.689,18.048 44.885,18.753 C45.919,18.988 46.53,19.975 46.295,21.009 C46.06,22.043 45.073,22.654 44.039,22.419 C41.971,21.949 40.185,22.419 38.352,23.923 C38.023,24.205 37.6,24.346 37.177,24.346 L37.177,24.346 Z" id="路径" fill="#FFFFFF"></path>
            </g>
        </g>
    </g>
</svg>