<?xml version="1.0" encoding="UTF-8"?>
<svg width="94px" height="94px" viewBox="0 0 94 94" version="1.1" xmlns="http://www.w3.org/2000/svg" xmlns:xlink="http://www.w3.org/1999/xlink">
    <title>光配柜</title>
    <g id="页面-1" stroke="none" stroke-width="1" fill="none" fill-rule="evenodd">
        <g id="光配柜" fill-rule="nonzero">
            <rect id="矩形" fill="#000000" opacity="0" x="0" y="0" width="94" height="94"></rect>
            <path d="M33.5333984,79.0554688 C33.4232422,79.0554688 33.3222656,79.0279297 33.2212891,78.9728516 L18.3042969,70.4816406 C18.1115234,70.3714844 17.9830078,70.1603516 17.9830078,69.9308594 L17.9830078,23.646875 C17.9830078,23.4265625 18.1023437,23.2246094 18.2859375,23.1052734 L45.4394531,6.60019531 C45.5404297,6.5359375 45.6505859,6.50839844 45.7699219,6.50839844 C45.8800781,6.50839844 45.9810547,6.5359375 46.0820312,6.59101563 L60.9990234,15.0179688 C61.2009766,15.128125 61.3203125,15.3392578 61.3203125,15.56875 L61.4029297,62.6605469 C61.4029297,62.8900391 61.2835937,63.0919922 61.0908203,63.2113281 L33.8455078,78.9728516 C33.7537109,79.0279297 33.6435547,79.0554688 33.5333984,79.0554688 Z" id="路径" fill="#FFFFFF"></path>
            <path d="M45.7699219,7.14179688 L60.6869141,15.56875 L60.7695312,62.6605469 L33.5333984,78.43125 L18.6164063,69.9400391 L18.6164063,23.646875 L45.7699219,7.14179688 M45.7699219,5.88417969 C45.5404297,5.88417969 45.3201172,5.9484375 45.1181641,6.06777344 L17.9554687,22.5636719 C17.5791016,22.7931641 17.3496094,23.1970703 17.3496094,23.6376953 L17.3496094,69.9308594 C17.3496094,70.3806641 17.5882812,70.8029297 17.9830078,71.0232422 L32.9,79.5144531 C33.0927734,79.6246094 33.3130859,79.6796875 33.5242188,79.6796875 C33.7445312,79.6796875 33.9648438,79.6246094 34.1576172,79.5144531 L61.39375,63.74375 C61.7884766,63.5142578 62.0271484,63.1011719 62.0271484,62.6513672 L61.9445312,15.5595703 C61.9445312,15.1097656 61.6966797,14.6875 61.3019531,14.4671875 L46.3941406,6.04023438 C46.2013672,5.93925781 45.9810547,5.88417969 45.7699219,5.88417969 Z" id="形状" fill="#0276F7"></path>
            <line x1="33.7348684" y1="78.43125" x2="33.7348684" y2="32.0003906" id="路径" fill="#B5D6FB"></line>
            <polygon id="路径" fill="#0276F7" points="32.9 32.0003906 34.1576172 32.0003906 34.1576172 78.43125 32.9 78.43125"></polygon>
            <line x1="60.6869141" y1="15.56875" x2="33.5333984" y2="32.0003906" id="路径" fill="#B5D6FB"></line>
            <polygon id="路径" fill="#0276F7" points="33.2043984 31.4575039 60.3560781 15.028709 61.0071934 16.104752 33.8555137 32.5335469"></polygon>
            <line x1="20.9755859" y1="24.96875" x2="33.5333984" y2="32.0003906" id="路径" fill="#B5D6FB"></line>
            <path d="M33.5333984,32.6246094 C33.4324219,32.6246094 33.3222656,32.5970703 33.2304688,32.5419922 L20.6634766,25.5195312 C20.3605469,25.3451172 20.2503906,24.96875 20.4248047,24.6566406 C20.5992187,24.3537109 20.9755859,24.2435547 21.2876953,24.4179687 L33.8455078,31.4496094 C34.1484375,31.6240234 34.2585938,32.0003906 34.0841797,32.3125 C33.9648438,32.5144531 33.7537109,32.6246094 33.5333984,32.6246094 L33.5333984,32.6246094 Z" id="路径" fill="#0276F7"></path>
            <line x1="20.8929687" y1="63.0369141" x2="30.4673828" y2="68.7375" id="路径" fill="#B5D6FB"></line>
            <path d="M30.4673828,69.3708984 C30.3572266,69.3708984 30.2470703,69.3433594 30.1460937,69.2791016 L20.5716797,63.5785156 C20.26875,63.4041016 20.1769531,63.009375 20.3513672,62.715625 C20.5257812,62.4126953 20.9205078,62.3208984 21.2142578,62.4953125 L30.7886719,68.1958984 C31.0916016,68.3703125 31.1833984,68.7650391 31.0089844,69.0587891 C30.8896484,69.2607422 30.6785156,69.3708984 30.4673828,69.3708984 Z" id="路径" fill="#0276F7"></path>
            <line x1="20.8929687" y1="58.8234375" x2="30.4673828" y2="64.5240234" id="路径" fill="#B5D6FB"></line>
            <path d="M30.4673828,65.1482422 C30.3572266,65.1482422 30.2470703,65.1207031 30.1460937,65.0564453 L20.5716797,59.3558594 C20.26875,59.1814453 20.1769531,58.7867187 20.3513672,58.4929688 C20.5257812,58.1900391 20.9205078,58.0982422 21.2142578,58.2726563 L30.7886719,63.9732422 C31.0916016,64.1476563 31.1833984,64.5423828 31.0089844,64.8361328 C30.8896484,65.0380859 30.6785156,65.1482422 30.4673828,65.1482422 Z" id="路径" fill="#0276F7"></path>
            <line x1="20.8929687" y1="54.6007812" x2="30.4673828" y2="60.3013672" id="路径" fill="#B5D6FB"></line>
            <path d="M30.4673828,60.9347656 C30.3572266,60.9347656 30.2470703,60.9072266 30.1460937,60.8429687 L20.5716797,55.1423828 C20.26875,54.9679687 20.1769531,54.5732422 20.3513672,54.2794922 C20.5257812,53.9765625 20.9205078,53.8847656 21.2142578,54.0591797 L30.7886719,59.7597656 C31.0916016,59.9341797 31.1833984,60.3289063 31.0089844,60.6226562 C30.8896484,60.8246094 30.6785156,60.9347656 30.4673828,60.9347656 Z" id="路径" fill="#0276F7"></path>
            <line x1="17.8085937" y1="46.3666016" x2="33.5333984" y2="55.2158203" id="路径" fill="#B5D6FB"></line>
            <polygon id="路径" fill="#0276F7" points="17.4976777 46.9142617 18.1142773 45.818207 33.8344922 54.662377 33.2178008 55.7584316"></polygon>
            <line x1="30.3113281" y1="36.3882812" x2="28.2550781" y2="35.3601562" id="路径" fill="#B5D6FB"></line>
            <path d="M30.3021484,37.0216797 C30.2103516,37.0216797 30.109375,37.0033203 30.0175781,36.9574219 L27.9613281,35.9292969 C27.6492188,35.7732422 27.5207031,35.396875 27.6767578,35.0847656 C27.8328125,34.7726562 28.2091797,34.6441406 28.5212891,34.8001953 L30.5775391,35.8283203 C30.8896484,35.984375 31.0181641,36.3607422 30.8621094,36.6728516 C30.7611328,36.8931641 30.5408203,37.0216797 30.3021484,37.0216797 L30.3021484,37.0216797 Z" id="路径" fill="#0276F7"></path>
            <path d="M48.4503906,87.4916016 C48.3402344,87.4916016 48.2392578,87.4640625 48.1382812,87.4089844 L33.2212891,78.9177734 C33.0285156,78.8076172 32.9,78.5964844 32.9,78.3669922 L32.9,32.0738281 C32.9,31.8535156 33.0193359,31.6515625 33.2029297,31.5322266 L60.3564453,15.0271484 C60.4574219,14.9628906 60.5675781,14.9353516 60.6869141,14.9353516 C60.7970703,14.9353516 60.9072266,14.9628906 61.0082031,15.0271484 L75.7048828,23.7478516 C75.8976562,23.8580078 76.0169922,24.0691406 76.0169922,24.2894531 L76.0169922,71.2619141 C76.0169922,71.4914062 75.8976562,71.6933594 75.7048828,71.8035156 L48.7716797,87.3998047 C48.6707031,87.4640625 48.5605469,87.4916016 48.4503906,87.4916016 Z" id="路径" fill="#B5D6FB"></path>
            <path d="M60.6869141,15.56875 L75.3835938,24.2894531 L75.3835938,71.2619141 L48.4503906,86.8582031 L33.5333984,78.3669922 L33.5333984,32.0738281 L60.6869141,15.56875 M60.6869141,14.3111328 C60.4574219,14.3111328 60.2371094,14.3753906 60.0351562,14.4947266 L32.8816406,30.990625 C32.5052734,31.2201172 32.2757812,31.6240234 32.2757812,32.0646484 L32.2757812,78.3578125 C32.2757812,78.8076172 32.5144531,79.2298828 32.9091797,79.4501953 L47.8261719,87.9505859 C48.0189453,88.0607422 48.2392578,88.1158203 48.4503906,88.1158203 C48.6707031,88.1158203 48.8910156,88.0607422 49.0837891,87.9505859 L76.0169922,72.3634766 C76.4025391,72.1339844 76.6503906,71.7208984 76.6503906,71.2710938 L76.6503906,24.2894531 C76.6503906,23.8488281 76.4117188,23.4357422 76.0353516,23.20625 L61.3386719,14.4855469 C61.1367187,14.3662109 60.9072266,14.3111328 60.6869141,14.3111328 L60.6869141,14.3111328 Z" id="形状" fill="#0276F7"></path>
            <line x1="48.6518606" y1="83.6544922" x2="48.6518606" y2="40.4273437" id="路径" fill="#B5D6FB"></line>
            <path d="M48.4503906,84.2878906 C48.1015625,84.2878906 47.8169922,84.0033203 47.8169922,83.6544922 L47.8169922,40.4273437 C47.8169922,40.0785156 48.1015625,39.7939453 48.4503906,39.7939453 C48.7992187,39.7939453 49.0837891,40.0785156 49.0837891,40.4273437 L49.0837891,83.6544922 C49.0837891,84.0033203 48.7992187,84.2878906 48.4503906,84.2878906 L48.4503906,84.2878906 Z" id="路径" fill="#0276F7"></path>
            <line x1="72.6296875" y1="25.9417969" x2="48.4503906" y2="40.4273437" id="路径" fill="#B5D6FB"></line>
            <path d="M48.4503906,41.0515625 C48.2392578,41.0515625 48.028125,40.9414062 47.9087891,40.7486328 C47.7251953,40.4548828 47.8261719,40.0601562 48.1291016,39.8857422 L72.3083984,25.4001953 C72.6113281,25.2166016 72.996875,25.3175781 73.1712891,25.6205078 C73.3548828,25.9142578 73.2539062,26.3089844 72.9509766,26.4833984 L48.7716797,40.9689453 C48.6707031,41.0240234 48.5605469,41.0515625 48.4503906,41.0515625 Z" id="路径" fill="#0276F7"></path>
            <line x1="36.2230469" y1="33.5792969" x2="48.4503906" y2="40.4273437" id="路径" fill="#B5D6FB"></line>
            <path d="M48.4503906,41.0515625 C48.3494141,41.0515625 48.2392578,41.0240234 48.1474609,40.9689453 L35.9201172,34.1208984 C35.6171875,33.9464844 35.5070312,33.5701172 35.6814453,33.2580078 C35.8558594,32.9550781 36.2322266,32.8449219 36.5443359,33.0193359 L48.7716797,39.8673828 C49.0746094,40.0417969 49.1847656,40.4181641 49.0103516,40.7302734 C48.8818359,40.9414062 48.6707031,41.0515625 48.4503906,41.0515625 L48.4503906,41.0515625 Z" id="路径" fill="#0276F7"></path>
            <line x1="35.7732422" y1="71.8953125" x2="45.3476562" y2="77.5958984" id="路径" fill="#B5D6FB"></line>
            <path d="M45.3476562,78.2292969 C45.2375,78.2292969 45.1273438,78.2017578 45.0263672,78.1375 L35.4519531,72.4369141 C35.1490234,72.2625 35.0572266,71.8677734 35.2316406,71.5740234 C35.4060547,71.2710938 35.8007812,71.1792969 36.0945313,71.3537109 L45.6689453,77.0542969 C45.971875,77.2287109 46.0636719,77.6234375 45.8892578,77.9171875 C45.7699219,78.1191406 45.5587891,78.2292969 45.3476562,78.2292969 Z" id="路径" fill="#0276F7"></path>
            <line x1="35.7732422" y1="67.6818359" x2="45.3476562" y2="73.3732422" id="路径" fill="#B5D6FB"></line>
            <path d="M45.3476562,74.0066406 C45.2375,74.0066406 45.1273438,73.9791016 45.0263672,73.9148438 L35.4519531,68.2142578 C35.1490234,68.0398438 35.0572266,67.6451172 35.2316406,67.3513672 C35.4060547,67.0484375 35.8007812,66.9566406 36.0945313,67.1310547 L45.6689453,72.8316406 C45.971875,73.0060547 46.0636719,73.4007813 45.8892578,73.6945313 C45.7699219,73.8964844 45.5587891,74.0066406 45.3476562,74.0066406 Z" id="路径" fill="#0276F7"></path>
            <line x1="35.7732422" y1="63.4591797" x2="45.3476562" y2="69.1597656" id="路径" fill="#B5D6FB"></line>
            <path d="M45.3476562,69.7931641 C45.2375,69.7931641 45.1273438,69.765625 45.0263672,69.7013672 L35.4519531,64.0007812 C35.1490234,63.8263672 35.0572266,63.4316406 35.2316406,63.1378906 C35.4060547,62.8349609 35.8007812,62.7431641 36.0945313,62.9175781 L45.6689453,68.6181641 C45.971875,68.7925781 46.0636719,69.1873047 45.8892578,69.4810547 C45.7699219,69.6830078 45.5587891,69.7931641 45.3476562,69.7931641 Z" id="路径" fill="#0276F7"></path>
            <line x1="33.1478516" y1="55.0322266" x2="48.4503906" y2="63.6427734" id="路径" fill="#B5D6FB"></line>
            <polygon id="路径" fill="#0276F7" points="32.8325293 55.5775 33.4491289 54.4815371 48.7533203 63.0915332 48.1367207 64.1875879"></polygon>
            <line x1="44.7876953" y1="44.3837891" x2="42.7314453" y2="43.3556641" id="路径" fill="#B5D6FB"></line>
            <path d="M44.7876953,45.0080078 C44.6958984,45.0080078 44.5949219,44.9896484 44.503125,44.94375 L42.446875,43.915625 C42.1347656,43.7595703 42.00625,43.3832031 42.1623047,43.0710938 C42.3183594,42.7589844 42.6947266,42.6304687 43.0068359,42.7865234 L45.0630859,43.8146484 C45.3751953,43.9707031 45.5037109,44.3470703 45.3476562,44.6591797 C45.2466797,44.8794922 45.0263672,45.0080078 44.7876953,45.0080078 L44.7876953,45.0080078 Z" id="路径" fill="#0276F7"></path>
        </g>
    </g>
</svg>