<?xml version="1.0" encoding="UTF-8"?>
<svg width="94px" height="95px" viewBox="0 0 94 95" version="1.1" xmlns="http://www.w3.org/2000/svg" xmlns:xlink="http://www.w3.org/1999/xlink">
    <title>传感器</title>
    <g id="页面-1" stroke="none" stroke-width="1" fill="none" fill-rule="evenodd">
        <g id="传感器" fill-rule="nonzero">
            <rect id="矩形" fill="#000000" opacity="0" x="0" y="0" width="94" height="94"></rect>
            <rect id="矩形备份" fill="#000000" opacity="0" x="0" y="1" width="94" height="94"></rect>
            <g id="编组-16" transform="translate(7.000000, 13.000000)">
                <path d="M80.3551003,32.2761746 L80.3551003,66.7440225 C80.3551003,67.6542958 79.618467,68.3895165 78.7064447,68.3895165 L3.07875585,68.3895165 C2.16673363,68.3895165 1.4301003,67.6542958 1.4301003,66.7440225 L1.4301003,32.2761746 C1.4301003,31.3746539 2.16673363,30.6306806 3.07875585,30.6306806 L78.7152142,30.6306806 C79.618467,30.6306806 80.3551003,31.3659013 80.3551003,32.2761746 Z M74.6941955,49.5100985 C74.6941955,42.2541702 68.814554,36.381157 61.5699957,36.381157 C54.3254375,36.381157 48.445796,42.2541702 48.445796,49.5100985 C48.445796,56.7572743 54.3254375,62.6390401 61.5699957,62.6390401 C68.814554,62.6390401 74.6941955,56.7572743 74.6941955,49.5100985 Z M49.1895006,36.9500778 C49.1895006,35.5671626 48.0695689,34.4380736 46.6784038,34.4380736 L35.2865984,34.4380736 C34.5953905,34.4380736 33.9654289,34.7181577 33.5104567,35.1732944 C33.0554844,35.628431 32.7755015,36.2586202 32.7755015,36.9500778 C32.7755015,38.332993 33.8954332,39.4620819 35.2865984,39.4620819 L46.6784038,39.4620819 C47.3696116,39.4620819 47.9995732,39.1819978 48.4545455,38.7268612 C48.9095177,38.2717246 49.1895006,37.6415354 49.1895006,36.9500778 L49.1895006,36.9500778 Z M33.5192061,49.5100985 C33.5192061,42.2541702 27.6395647,36.381157 20.3950064,36.381157 C13.1504481,36.381157 7.27080666,42.2541702 7.27080666,49.5100985 C7.27080666,56.7572743 13.1504481,62.6390401 20.3950064,62.6390401 C27.6395647,62.6390401 33.5192061,56.7572743 33.5192061,49.5100985 L33.5192061,49.5100985 Z" id="形状" fill="#CBE4FE"></path>
                <path d="M78.7189501,29.0201971 L3.25480154,29.0201971 C1.4611609,29.0201971 0,30.4818859 0,32.2761746 L0,66.7440225 C0,68.5383112 1.4611609,70 3.25480154,70 L31.7693128,70 L35.0066155,70 L36.8440034,70 L40.081306,70 L41.918694,70 L45.1559966,70 L46.9933845,70 L50.2306872,70 L78.7451985,70 C80.5388391,70 82,68.5383112 82,66.7440225 L82,32.2761746 C81.9737516,30.4818859 80.5125907,29.0201971 78.7189501,29.0201971 Z M79.7611729,68.2217656 C79.7611729,68.240533 79.7521473,68.2499167 79.734096,68.2499167 L1.89727528,68.2499167 C1.87922407,68.2499167 1.87019846,68.240533 1.87019846,68.2217656 L1.87019846,31.2780679 C1.87019846,31.2593004 1.87922407,31.2499167 1.89727528,31.2499167 L79.7431216,31.2499167 C79.7611729,31.2499167 79.7701985,31.2593004 79.7701985,31.2780679 C79.7701985,40.9578535 79.7701985,48.2176928 79.7701985,53.0575856 C79.7701985,56.4274034 79.7701985,61.48213 79.7701985,68.2217656 L79.7611729,68.2217656 Z" id="形状" fill="#1B81FC"></path>
                <path d="M20.0021554,34.7619209 C12.0904936,34.7619209 5.65215536,41.0432265 5.65215536,48.7619209 C5.65215536,56.4806152 12.0904936,62.7619209 20.0021554,62.7619209 C27.9138171,62.7619209 34.3521554,56.4806152 34.3521554,48.7619209 C34.3521554,41.0432265 27.9138171,34.7619209 20.0021554,34.7619209 Z M20.0021554,60.7619209 C13.2207865,60.7619209 7.70215536,55.3778904 7.70215536,48.7619209 C7.70215536,42.1459513 13.2207865,36.7619209 20.0021554,36.7619209 C26.7835242,36.7619209 32.3021554,42.1459513 32.3021554,48.7619209 C32.3021554,55.3778904 26.7835242,60.7619209 20.0021554,60.7619209 Z" id="形状" fill="#6A3906"></path>
                <path d="M61.0021554,34.7619209 C53.0904936,34.7619209 46.6521554,41.0432265 46.6521554,48.7619209 C46.6521554,56.4806152 53.0904936,62.7619209 61.0021554,62.7619209 C68.9138171,62.7619209 75.3521554,56.4806152 75.3521554,48.7619209 C75.3521554,41.0432265 68.9138171,34.7619209 61.0021554,34.7619209 Z M61.0021554,60.7619209 C54.2207865,60.7619209 48.7021554,55.3778904 48.7021554,48.7619209 C48.7021554,42.1459513 54.2207865,36.7619209 61.0021554,36.7619209 C67.7835242,36.7619209 73.3021554,42.1459513 73.3021554,48.7619209 C73.3021554,55.3778904 67.7835242,60.7619209 61.0021554,60.7619209 Z" id="形状备份" fill="#6A3906"></path>
                <path d="M24.4847606,49.5057118 C24.4847606,51.9275044 22.4658213,53.8980668 19.984574,53.8980668 C17.5033267,53.8980668 15.4843874,51.9275044 15.4843874,49.5057118 C15.4843874,47.0839192 17.5033267,45.1133568 19.984574,45.1133568 C20.5814778,45.1133568 21.0671937,44.6392794 21.0671937,44.0566784 C21.0671937,43.4740773 20.5814778,43 19.984574,43 C16.3095191,43 13.325,45.918717 13.325,49.5 C13.325,53.081283 16.3153711,56 19.984574,56 C23.6596289,56 26.65,53.081283 26.65,49.5 C26.65,48.9173989 26.1642841,48.4433216 25.5673803,48.4433216 C24.9704765,48.4433216 24.4847606,48.9231107 24.4847606,49.5057118 Z M62.009574,43 C58.3345191,43 55.35,45.918717 55.35,49.5 C55.35,53.081283 58.3403711,56 62.009574,56 C62.6064778,56 63.0921937,55.5259227 63.0921937,54.9433216 C63.0921937,54.3607206 62.6064778,53.8866432 62.009574,53.8866432 C59.5283267,53.8866432 57.5093874,51.9160808 57.5093874,49.4942882 C57.5093874,47.0724956 59.5283267,45.1019332 62.009574,45.1019332 C64.4908213,45.1019332 66.5097606,47.0724956 66.5097606,49.4942882 C66.5097606,50.0768893 66.9954765,50.5509666 67.5923803,50.5509666 C68.1892841,50.5509666 68.675,50.0768893 68.675,49.4942882 C68.675,45.918717 65.6846289,43 62.009574,43 L62.009574,43 Z" id="形状" fill="#6A3906"></path>
                <g id="wi-fi" transform="translate(14.000000, 0.000000)" fill="#1B81FC">
                    <path d="M14.1671025,23.2270066 C13.0759976,24.1864885 11.3416328,24.172766 10.2690068,23.1961646 C9.19638077,22.2195631 9.18130909,20.6404636 10.2351322,19.6470375 C14.4070887,15.8483709 20.0656049,13.7142857 25.9657943,13.7142857 C31.8659837,13.7142857 37.5245,15.8483709 41.6964564,19.6470375 C42.4193295,20.2827084 42.7092392,21.2240417 42.4547584,22.1092348 C42.2002776,22.994428 41.4410095,23.6857243 40.4687795,23.9174233 C39.4965495,24.1491222 38.4626595,23.8851661 37.7644861,23.2270066 C34.6354623,20.3776194 30.3912771,18.7768097 25.9657943,18.7768097 C21.5403115,18.7768097 17.2961264,20.3776194 14.1671025,23.2270066 L14.1671025,23.2270066 Z M4.65152015,14.0991954 C3.57454752,15.1224542 1.86264585,15.1078201 0.8039123,14.0663042 C-0.254821246,13.0247883 -0.269697322,11.3407264 0.770477375,10.281268 C14.7027072,-3.42708933 37.2972928,-3.42708933 51.2295226,10.281268 C52.2696973,11.3407264 52.2548212,13.0247883 51.1960877,14.0663042 C50.1373542,15.1078201 48.4254525,15.1224542 47.3484799,14.0991954 C35.5571364,2.49960842 16.4428636,2.49960842 4.65152015,14.0991954 L4.65152015,14.0991954 Z" id="形状"></path>
                </g>
            </g>
        </g>
    </g>
</svg>