<?xml version="1.0" encoding="UTF-8"?>
<svg width="94px" height="94px" viewBox="0 0 94 94" version="1.1" xmlns="http://www.w3.org/2000/svg" xmlns:xlink="http://www.w3.org/1999/xlink">
    <title>基站空调</title>
    <g id="页面-1" stroke="none" stroke-width="1" fill="none" fill-rule="evenodd">
        <g id="基站空调" fill-rule="nonzero">
            <rect id="矩形" fill="#000000" opacity="0" x="0" y="0" width="94" height="94"></rect>
            <g id="编组-11" transform="translate(7.000000, 7.000000)">
                <g id="立柜式空调备份-2">
                    <path d="M1.90822501,0.882481433 L40.0248467,0.882481433 L40.0248467,0.882481433 L40.0248467,21.1533421 L0.90822501,21.1533421 L0.90822501,1.88248143 C0.90822501,1.33019668 1.35594026,0.882481433 1.90822501,0.882481433 Z" id="路径" fill="#00A0E9" opacity="0.397214617"></path>
                    <path d="M34.5125504,7.7675841 L6.42052136,7.7675841 C5.91695105,7.7675841 5.51229635,7.3743993 5.51229635,6.88510266 C5.51229635,6.39580603 5.91695105,6.00262123 6.42052136,6.00262123 L34.5215427,6.00262123 C35.025113,6.00262123 35.4297677,6.39580603 35.4297677,6.88510266 C35.4297677,7.3743993 35.0161207,7.7675841 34.5125504,7.7675841 L34.5125504,7.7675841 Z M34.5125504,11.9003932 L6.42052136,11.9003932 C5.91695105,11.9003932 5.51229635,11.5072084 5.51229635,11.0179118 C5.51229635,10.5286151 5.91695105,10.1354303 6.42052136,10.1354303 L34.5215427,10.1354303 C35.025113,10.1354303 35.4297677,10.5286151 35.4297677,11.0179118 C35.4297677,11.5072084 35.0161207,11.9003932 34.5125504,11.9003932 L34.5125504,11.9003932 Z M34.5125504,16.0332023 L6.42052136,16.0332023 C5.91695105,16.0332023 5.51229635,15.6400175 5.51229635,15.1507208 C5.51229635,14.6614242 5.91695105,14.2682394 6.42052136,14.2682394 L34.5215427,14.2682394 C35.025113,14.2682394 35.4297677,14.6614242 35.4297677,15.1507208 C35.4297677,15.6400175 35.0161207,16.0332023 34.5125504,16.0332023 L34.5125504,16.0332023 Z M25.9518552,31.2538226 L14.9812165,31.2538226 C14.4776462,31.2538226 14.0729915,30.8606378 14.0729915,30.3713412 C14.0729915,29.8820446 14.4776462,29.4888598 14.9812165,29.4888598 L25.9518552,29.4888598 C26.4554255,29.4888598 26.8600802,29.8820446 26.8600802,30.3713412 C26.8600802,30.8606378 26.4554255,31.2538226 25.9518552,31.2538226 Z" id="形状" fill="#000000"></path>
                    <path d="M0,22.0358235 L0,1 C-6.76353751e-17,0.44771525 0.44771525,1.01453063e-16 1,0 L40.9330717,0 L40.9330717,0 L40.9330717,22.0358235 L0,22.0358235 Z M1.81645002,20.2708606 L39.1166217,20.2708606 L39.1166217,1.76496287 L2.81645002,1.76496287 C2.26416527,1.76496287 1.81645002,2.21267812 1.81645002,2.76496287 L1.81645002,20.2708606 L1.81645002,20.2708606 Z" id="形状" fill="#231815"></path>
                    <path d="M0,79 L0,20.3494976 L0,20.3494976 L40.9330717,20.3494976 L40.9330717,80 L1,80 C0.44771525,80 3.99185455e-15,79.5522847 0,79 Z M2.81645002,78.2350371 L39.1166217,78.2350371 L39.1166217,78.2350371 L39.1166217,22.1144605 L1.81645002,22.1144605 L1.81645002,77.2350371 C1.81645002,77.7873219 2.26416527,78.2350371 2.81645002,78.2350371 Z" id="形状" fill="#231815"></path>
                </g>
                <g id="立柜式空调备份-3" transform="translate(39.066928, 0.000000)">
                    <path d="M0.90822501,0.882481433 L39.0248467,0.882481433 C39.5771315,0.882481433 40.0248467,1.33019668 40.0248467,1.88248143 L40.0248467,21.1533421 L40.0248467,21.1533421 L0.90822501,21.1533421 L0.90822501,0.882481433 Z" id="路径" fill="#10ABFF" opacity="0.397724697"></path>
                    <path d="M34.5125504,7.7675841 L6.42052136,7.7675841 C5.91695105,7.7675841 5.51229635,7.3743993 5.51229635,6.88510266 C5.51229635,6.39580603 5.91695105,6.00262123 6.42052136,6.00262123 L34.5215427,6.00262123 C35.025113,6.00262123 35.4297677,6.39580603 35.4297677,6.88510266 C35.4297677,7.3743993 35.0161207,7.7675841 34.5125504,7.7675841 L34.5125504,7.7675841 Z M34.5125504,11.9003932 L6.42052136,11.9003932 C5.91695105,11.9003932 5.51229635,11.5072084 5.51229635,11.0179118 C5.51229635,10.5286151 5.91695105,10.1354303 6.42052136,10.1354303 L34.5215427,10.1354303 C35.025113,10.1354303 35.4297677,10.5286151 35.4297677,11.0179118 C35.4297677,11.5072084 35.0161207,11.9003932 34.5125504,11.9003932 L34.5125504,11.9003932 Z M34.5125504,16.0332023 L6.42052136,16.0332023 C5.91695105,16.0332023 5.51229635,15.6400175 5.51229635,15.1507208 C5.51229635,14.6614242 5.91695105,14.2682394 6.42052136,14.2682394 L34.5215427,14.2682394 C35.025113,14.2682394 35.4297677,14.6614242 35.4297677,15.1507208 C35.4297677,15.6400175 35.0161207,16.0332023 34.5125504,16.0332023 L34.5125504,16.0332023 Z M25.9518552,31.2538226 L14.9812165,31.2538226 C14.4776462,31.2538226 14.0729915,30.8606378 14.0729915,30.3713412 C14.0729915,29.8820446 14.4776462,29.4888598 14.9812165,29.4888598 L25.9518552,29.4888598 C26.4554255,29.4888598 26.8600802,29.8820446 26.8600802,30.3713412 C26.8600802,30.8606378 26.4554255,31.2538226 25.9518552,31.2538226 Z" id="形状" fill="#000000"></path>
                    <path d="M0,22.0358235 L0,0 L39.9330717,0 C40.4853565,-4.13669454e-15 40.9330717,0.44771525 40.9330717,1 L40.9330717,22.0358235 L40.9330717,22.0358235 L0,22.0358235 Z M1.81645002,20.2708606 L39.1166217,20.2708606 L39.1166217,2.76496287 C39.1166217,2.21267812 38.6689065,1.76496287 38.1166217,1.76496287 L1.81645002,1.76496287 L1.81645002,1.76496287 L1.81645002,20.2708606 Z" id="形状" fill="#231815"></path>
                    <path d="M0,80 L0,20.3494976 L40.9330717,20.3494976 L40.9330717,79 C40.9330717,79.5522847 40.4853565,80 39.9330717,80 L0,80 L0,80 Z M1.81645002,78.2350371 L38.1166217,78.2350371 C38.6689065,78.2350371 39.1166217,77.7873219 39.1166217,77.2350371 L39.1166217,22.1144605 L39.1166217,22.1144605 L1.81645002,22.1144605 L1.81645002,78.2350371 Z" id="形状" fill="#231815"></path>
                </g>
            </g>
        </g>
    </g>
</svg>