<?xml version="1.0" encoding="UTF-8"?>
<svg width="94px" height="94px" viewBox="0 0 94 94" version="1.1" xmlns="http://www.w3.org/2000/svg" xmlns:xlink="http://www.w3.org/1999/xlink">
    <title>照明灯</title>
    <g id="页面-1" stroke="none" stroke-width="1" fill="none" fill-rule="evenodd">
        <g id="照明灯" fill-rule="nonzero">
            <rect id="矩形" fill="#000000" opacity="0" x="0" y="0" width="94" height="94"></rect>
            <path d="M65.6308,56.7431 C65.6308,66.7494 57.5186,73.4516 47.5123,73.4516 C37.506,73.4516 29.3938,66.7494 29.3938,56.7431 L65.6308,56.7431 L65.6308,56.7431 Z" id="路径" fill="#FFD629"></path>
            <path d="M47.5123,19.0162 C48.88,19.0162 50.2336,19.0961 51.5637,19.2371 L51.5637,12.0273 C51.5637,10.1802 50.0644,8.6809 48.2173,8.6809 L46.812,8.6809 C44.9649,8.6809 43.4656,10.1802 43.4656,12.0273 L43.4656,19.2371 C44.7957,19.0961 46.1446,19.0162 47.5123,19.0162 Z" id="路径" fill="#5672FC"></path>
            <path d="M80.9857,56.7431 C83.4109,56.7431 85.258,54.614 84.9666,52.2076 C82.7247,33.511 66.8105,19.0162 47.5076,19.0162 C28.2047,19.0162 12.2905,33.511 10.0486,52.2076 C9.7619,54.614 11.609,56.7431 14.0295,56.7431 L80.9857,56.7431 Z" id="路径" stroke="#6477FF" stroke-width="4"></path>
            <path d="M47.6016,87.4482 L47.423,87.4482 C45.8908,87.4482 44.6547,86.2074 44.6547,84.6799 L44.6547,81.6672 C44.6547,80.135 45.8955,78.8989 47.423,78.8989 L47.6016,78.8989 C49.1338,78.8989 50.3699133,80.1397 50.3699133,81.6672 L50.3699133,84.6799 C50.3746,86.2121 49.1338,87.4482 47.6016,87.4482 Z M30.6111,82.1795 L30.4654,82.0714 C29.8761027,81.6322355 29.4855485,80.9768295 29.3797613,80.2495429 C29.2739742,79.5222563 29.4616316,78.7827468 29.9014,78.1939 L31.7015,75.7781 C32.1406645,75.1888027 32.7960705,74.7982485 33.5233571,74.6924613 C34.2506437,74.5866742 34.9901532,74.7743316 35.579,75.2141 L35.7247,75.3222 C36.3139973,75.7613645 36.7045515,76.4167705 36.8103387,77.1440571 C36.9161258,77.8713437 36.7284684,78.6108532 36.2887,79.1997 L34.4886,81.6155 C34.0494355,82.2047973 33.3940295,82.5953515 32.6667429,82.7011387 C31.9394563,82.8069258 31.1999468,82.6192684 30.6111,82.1795 L30.6111,82.1795 Z M63.0552,83.0913 L63.2009,82.9832 C63.7901973,82.5440355 64.1807515,81.8886295 64.2865387,81.1613429 C64.3923258,80.4340563 64.2046684,79.6945468 63.7649,79.1057 L61.9648,76.6899 C61.5256355,76.1006027 60.8702295,75.7100485 60.1429429,75.6042613 C59.4156563,75.4984742 58.6761468,75.6861316 58.0873,76.1259 L57.9416,76.234 C57.3523027,76.6731645 56.9617485,77.3285705 56.8559613,78.0558571 C56.7501742,78.7831437 56.9378316,79.5226532 57.3776,80.1115 L59.1777,82.5273 C59.6168645,83.1165973 60.2722705,83.5071515 60.9995571,83.6129387 C61.7268437,83.7187258 62.4663532,83.5310684 63.0552,83.0913 L63.0552,83.0913 Z" id="形状" fill="#FF973D"></path>
        </g>
    </g>
</svg>