<?xml version="1.0" encoding="UTF-8"?>
<svg width="94px" height="94px" viewBox="0 0 94 94" version="1.1" xmlns="http://www.w3.org/2000/svg" xmlns:xlink="http://www.w3.org/1999/xlink">
    <title>服务器</title>
    <g id="页面-1" stroke="none" stroke-width="1" fill="none" fill-rule="evenodd">
        <g id="服务器" fill-rule="nonzero">
            <rect id="矩形" fill="#000000" opacity="0" x="0" y="0" width="94" height="94"></rect>
            <g id="编组-15" transform="translate(7.000000, 7.000000)">
                <path d="M6.29333336,27.0196078 L9.96666664,11.8745098 L10.7066666,8.82352941 C10.8577777,8.20653597 11.7777777,7.16078434 13.4666666,5.68627454 C13.979993,3.70574213 15.5333571,2.35263753 17.2933334,2.35290341 L66.16,2.35290341 C67.9230767,2.34467055 69.4828407,3.69544655 70,5.67843134 L70.9266666,9.54509807 C71.1733333,10.5803922 73.8266666,11.6313726 73.9933334,12.3294118 C74.8866667,16.1359477 76.3355556,21.4379085 78.34,28.2352941 L6,28.2352941 L6.29333336,27.0196078 Z" id="路径" fill="#B3D9FF"></path>
                <polygon id="路径" fill="#96CAFF" points="4 32.9411765 78 32.9411765 78 47.0588235 4 47.0588235 4 32.9411765"></polygon>
                <polygon id="路径" fill="#96CAFF" points="4 49.4117647 78 49.4117647 78 63.5294118 4 63.5294118"></polygon>
                <polygon id="路径" fill="#96CAFF" points="4 65.8823529 78 65.8823529 78 80 4 80"></polygon>
                <path d="M54,37.6470588 L56,37.6470588 L56,40 L54,40 L54,37.6470588 Z M36,37.6470588 L38,37.6470588 L38,40 L36,40 L36,37.6470588 Z M12,37.6470588 L14,37.6470588 L14,40 L12,40 L12,37.6470588 Z M54,54.1176471 L56,54.1176471 L56,56.4705882 L54,56.4705882 L54,54.1176471 Z M36,54.1176471 L38,54.1176471 L38,56.4705882 L36,56.4705882 L36,54.1176471 Z M12,54.1176471 L14,54.1176471 L14,56.4705882 L12,56.4705882 L12,54.1176471 Z M54,70.5882353 L56,70.5882353 L56,72.9411765 L54,72.9411765 L54,70.5882353 Z M36,70.5882353 L38,70.5882353 L38,72.9411765 L36,72.9411765 L36,70.5882353 Z M12,70.5882353 L14,70.5882353 L14,72.9411765 L12,72.9411765 L12,70.5882353 Z M60,37.6470588 L62,37.6470588 L62,40 L60,40 L60,37.6470588 Z M42,37.6470588 L44,37.6470588 L44,40 L42,40 L42,37.6470588 Z M60,54.1176471 L62,54.1176471 L62,56.4705882 L60,56.4705882 L60,54.1176471 Z M42,54.1176471 L44,54.1176471 L44,56.4705882 L42,56.4705882 L42,54.1176471 Z M60,70.5882353 L62,70.5882353 L62,72.9411765 L60,72.9411765 L60,70.5882353 Z M42,70.5882353 L44,70.5882353 L44,72.9411765 L42,72.9411765 L42,70.5882353 Z M66,37.6470588 L68,37.6470588 L68,40 L66,40 L66,37.6470588 Z M48,37.6470588 L50,37.6470588 L50,40 L48,40 L48,37.6470588 Z M66,54.1176471 L68,54.1176471 L68,56.4705882 L66,56.4705882 L66,54.1176471 Z M48,54.1176471 L50,54.1176471 L50,56.4705882 L48,56.4705882 L48,54.1176471 Z M66,70.5882353 L68,70.5882353 L68,72.9411765 L66,72.9411765 L66,70.5882353 Z M48,70.5882353 L50,70.5882353 L50,72.9411765 L48,72.9411765 L48,70.5882353 Z" id="形状" fill="#175AA7"></path>
                <path d="M4,30.5882353 C2.8954305,30.5882353 2,31.6416829 2,32.9411765 L2,42.3529412 C2,43.6524347 2.8954305,44.7058824 4,44.7058824 L76,44.7058824 C77.1045695,44.7058824 78,43.6524347 78,42.3529412 L78,32.9411765 C78,31.6416829 77.1045695,30.5882353 76,30.5882353 L4,30.5882353 Z M4,28.2352941 L76,28.2352941 C78.209139,28.2352941 80,30.3421894 80,32.9411765 L80,42.3529412 C80,44.9519282 78.209139,47.0588235 76,47.0588235 L4,47.0588235 C1.790861,47.0588235 0,44.9519282 0,42.3529412 L0,32.9411765 C0,30.3421894 1.790861,28.2352941 4,28.2352941 Z" id="形状" fill="#175AA7"></path>
                <path d="M66.5533334,8.96470588 C65.1066667,7.74901958 64.1666667,6.61176471 63.6733334,4.70588235 L61.7066666,4.70588235 L60,0 L63.6666666,0 C65.4223562,0.00208696311 66.971665,1.35083337 67.4866666,3.32549017 C67.88,4.81568621 70.1533333,5.86666664 70.3133334,6.46274513 L75.8866666,27.827451 L72.0133334,28.5019608 C70.06,21.0352941 68.8,16.6745097 67.2733334,10.8470588 L66.84,9.18431369 L66.5533334,8.96470588 Z" id="路径" fill="#96CAFF"></path>
                <path d="M4,47.0588235 C2.8954305,47.0588235 2,48.1122712 2,49.4117647 L2,58.8235294 C2,60.1230229 2.8954305,61.1764706 4,61.1764706 L76,61.1764706 C77.1045695,61.1764706 78,60.1230229 78,58.8235294 L78,49.4117647 C78,48.1122712 77.1045695,47.0588235 76,47.0588235 L4,47.0588235 Z M4,44.7058824 L76,44.7058824 C78.209139,44.7058824 80,46.8127776 80,49.4117647 L80,58.8235294 C80,61.4225165 78.209139,63.5294118 76,63.5294118 L4,63.5294118 C1.790861,63.5294118 0,61.4225165 0,58.8235294 L0,49.4117647 C0,46.8127776 1.790861,44.7058824 4,44.7058824 L4,44.7058824 Z" id="形状" fill="#175AA7"></path>
                <path d="M4,63.5294118 C2.8954305,63.5294118 2,64.5828594 2,65.8823529 L2,75.2941176 C2,76.5936112 2.8954305,77.6470588 4,77.6470588 L76,77.6470588 C77.1045695,77.6470588 78,76.5936112 78,75.2941176 L78,65.8823529 C78,64.5828594 77.1045695,63.5294118 76,63.5294118 L4,63.5294118 Z M4,61.1764706 L76,61.1764706 C78.209139,61.1764706 80,63.2833659 80,65.8823529 L80,75.2941176 C80,77.8931047 78.209139,80 76,80 L4,80 C1.790861,80 0,77.8931047 0,75.2941176 L0,65.8823529 C0,63.2833659 1.790861,61.1764706 4,61.1764706 Z M39,9.41176471 L48,21.1764706 L30,21.1764706 L39,9.41176471 Z" id="形状" fill="#175AA7"></path>
                <path d="M2.6,28.2352941 L78.2133334,27.5607843 L78.58,28.9490196 L77.54,30.5882353 L76.78,30.0549019 L70.78,7.18431369 C70.78,7.26274504 70.0066666,6.4 68.68,5.22352941 L68.1466666,4.76078428 L67.9533334,4.01568631 C67.6961959,3.02973993 66.9232791,2.355703 66.0466666,2.35294066 L11.9533334,2.35294066 C11.0742568,2.35226234 10.2978623,3.02697285 10.04,4.01568631 L9.86666664,4.66666664 L9.42666664,5.11372546 C8.64853832,5.87190928 7.91776452,6.69494722 7.24,7.57647059 L6.66666664,10.0784313 L2.86666664,27.0431372 L2.6,28.2352941 Z M0,30.5882353 L5.33333336,6.97254899 C5.48888893,6.28235291 6.42888893,5.06666664 8.15333336,3.32549017 C8.66614329,1.35910801 10.2050415,0.0123735592 11.9533334,1.82126599e-12 L66.0466666,1.82126599e-12 C67.8023562,0.00208696311 69.351665,1.35083337 69.8666666,3.32549017 C71.5911111,4.81568624 72.5333333,5.8614379 72.6933334,6.46274513 L79.0133334,30.5882353 L0,30.5882353 Z" id="形状" fill="#175AA7"></path>
            </g>
        </g>
    </g>
</svg>