<?xml version="1.0" encoding="UTF-8"?>
<svg width="94px" height="94px" viewBox="0 0 94 94" version="1.1" xmlns="http://www.w3.org/2000/svg" xmlns:xlink="http://www.w3.org/1999/xlink">
    <title>笔记本电脑</title>
    <g id="页面-1" stroke="none" stroke-width="1" fill="none" fill-rule="evenodd">
        <g id="笔记本电脑" fill-rule="nonzero">
            <rect id="矩形" fill="#000000" opacity="0" x="0" y="0" width="94" height="94"></rect>
            <path d="M80.6160156,60.8337891 L14.0541016,60.8337891 C12.7689453,60.8337891 11.7132813,59.7964844 11.7132813,58.4929688 L11.7132813,16.5509766 C11.7132813,13.8246094 13.9255859,11.6214844 16.6427734,11.6214844 L78.0181641,11.6214844 C80.7445313,11.6214844 82.9477167,13.8337891 82.9477167,16.5509766 L82.9477167,58.5113281 C82.9568359,59.7964844 81.9195312,60.8337891 80.6160156,60.8337891 L80.6160156,60.8337891 Z" id="路径" fill="#FFFFFF"></path>
            <path d="M80.6160156,62.1373047 L14.0541016,62.1373047 C12.0529297,62.1373047 10.4189453,60.5125 10.4189453,58.5021484 L10.4189453,16.5509766 C10.4189453,13.1177734 13.2095703,10.3271484 16.6427734,10.3271484 L78.0181641,10.3271484 C81.4513672,10.3271484 84.2420309,13.1177734 84.2420309,16.5509766 L84.2420309,58.5113281 C84.2511719,60.5125 82.6263672,62.1373047 80.6160156,62.1373047 Z M16.6519531,12.925 C14.6507812,12.925 13.0259766,14.5498047 13.0259766,16.5509766 L13.0259766,58.5113281 C13.0259766,59.0804688 13.4941406,59.5486328 14.0632813,59.5486328 L80.6251953,59.5486328 C81.1943359,59.5486328 81.6625,59.0804688 81.6625,58.5113281 L81.6625,16.5509766 C81.6625,14.5498047 80.0376953,12.925 78.0365234,12.925 L16.6519531,12.925 Z" id="形状" fill="#1B81FC"></path>
            <path d="M74.9980469,56.2714844 L19.68125,56.2714844 C17.9095703,56.2714844 16.4683594,54.8394531 16.4683594,53.0585938 L16.4683594,19.3966797 C16.4683594,17.625 17.9003906,16.1837891 19.68125,16.1837891 L74.9980469,16.1837891 C76.7697266,16.1837891 78.2109375,17.6158203 78.2109375,19.3966797 L78.2109375,53.0585938 C78.2109375,54.8394531 76.7697266,56.2714844 74.9980469,56.2714844 Z" id="路径" fill="#CBE4FE"></path>
            <path d="M74.9980469,57.575 L19.68125,57.575 C17.2027344,57.575 15.1740234,55.5646484 15.1740234,53.0677734 L15.1740234,19.3966797 C15.1740234,16.9181641 17.184375,14.8894531 19.68125,14.8894531 L74.9980469,14.8894531 C77.4765625,14.8894531 79.5053045,16.8998047 79.5053045,19.3966797 L79.5053045,53.0585938 C79.5144531,55.5554688 77.4857422,57.575 74.9980469,57.575 Z M19.68125,17.4964844 C18.6255859,17.4964844 17.771875,18.3501953 17.771875,19.4058594 L17.771875,53.0677734 C17.771875,54.1234375 18.6255859,54.9771484 19.68125,54.9771484 L74.9980469,54.9771484 C76.0537109,54.9771484 76.9074219,54.1234375 76.9074219,53.0677734 L76.9074219,19.4058594 C76.9074219,18.3501953 76.0537109,17.4964844 74.9980469,17.4964844 L19.68125,17.4964844 Z" id="形状" fill="#1B81FC"></path>
            <path d="M88.6849609,80.2121094 L6.11367188,80.2121094 C4.60820313,80.2121094 3.70859375,78.5138672 4.56230469,77.2746094 L11.5296875,67.1953125 C11.8785156,66.6904297 12.4568359,66.3875 13.0810547,66.3875 L82.5804687,66.3875 C83.2322266,66.3875 83.8380859,66.7271484 84.1777344,67.2962891 L90.2822266,77.3847656 C91.0533203,78.6148437 90.1537109,80.2121094 88.6849609,80.2121094 Z" id="路径" fill="#CBE4FE"></path>
            <path d="M88.3085938,74.6767578 L5.73730469,74.6767578 C4.23183594,74.6767578 3.33222656,72.9785156 4.1859375,71.7392578 L11.1533203,61.6507813 C11.5021484,61.1458984 12.0804687,60.8429688 12.7046875,60.8429688 L82.2041016,60.8429688 C82.8558594,60.8429688 83.4617188,61.1826172 83.8013672,61.7517578 L89.9150391,71.8402344 C90.6677734,73.0794922 89.7681641,74.6767578 88.3085938,74.6767578 Z" id="路径" fill="#FFFFFF"></path>
            <path d="M88.3085937,75.9160156 L5.73730469,75.9160156 C4.58066406,75.9160156 3.525,75.2826172 2.98339844,74.2544922 C2.45097656,73.2263672 2.51523438,71.9962891 3.17617188,71.0416016 L10.1435547,60.953125 C10.7310547,60.1085938 11.6765625,59.6128906 12.7046875,59.6128906 L82.2041016,59.6128906 C83.2873047,59.6128906 84.30625,60.1820313 84.8662109,61.1091797 L90.9707031,71.1976563 C91.5582031,72.1707031 91.5857422,73.3457031 91.0257812,74.3279297 C90.4566406,75.3285156 89.4376953,75.9160156 88.3085937,75.9160156 Z M12.6955078,62.0730469 C12.484375,62.0730469 12.2916016,62.1740234 12.1630859,62.3484375 L5.19570313,72.4277344 C5.00292969,72.7123047 5.10390625,72.9876953 5.15898438,73.0886719 C5.2140625,73.1896484 5.37929688,73.4283203 5.728125,73.4283203 L88.3085937,73.4283203 C88.6482422,73.4283203 88.8134766,73.1988281 88.8685547,73.1070313 C88.9236328,73.0060547 89.0337891,72.7582031 88.859375,72.4552734 L82.7457031,62.3667969 C82.6263672,62.1740234 82.4244141,62.0546875 82.2041016,62.0546875 L12.6955078,62.0546875 L12.6955078,62.0730469 L12.6955078,62.0730469 Z" id="形状" fill="#1B81FC"></path>
            <path d="M79.4869141,66.68125 L15.1923828,66.68125 C14.4763672,66.68125 13.8888672,66.09375 13.8888672,65.3777344 C13.8888672,64.6617187 14.4763672,64.0742187 15.1923828,64.0742187 L79.4777344,64.0742187 C80.19375,64.0742187 80.78125,64.6617187 80.78125,65.3777344 C80.78125,66.1029297 80.2029297,66.68125 79.4869141,66.68125 Z" id="路径" fill="#1B81FC"></path>
        </g>
    </g>
</svg>