<?xml version="1.0" encoding="UTF-8"?>
<svg width="94px" height="94px" viewBox="0 0 94 94" version="1.1" xmlns="http://www.w3.org/2000/svg" xmlns:xlink="http://www.w3.org/1999/xlink">
    <title>编组 2备份 3</title>
    <g id="页面-1" stroke="none" stroke-width="1" fill="none" fill-rule="evenodd">
        <g id="编组-2备份-3" fill-rule="nonzero">
            <g id="电缆">
                <rect id="矩形" fill="#000000" opacity="0" x="0" y="0" width="94" height="94"></rect>
                <g id="编组-20" transform="translate(17.000000, 13.000000)" fill="#5C97FF">
                    <path d="M2.06289852,17.6146435 L0,17.6146435 L0,54.9738678 L0.0655662206,54.9738678 C0.0216067276,55.2550384 0,55.5386547 0,55.8226052 C0,62.859525 13.627757,68.56 30.4400031,68.56 C47.2522492,68.56 60.880003,62.859525 60.880003,55.8226052 C60.880003,55.5375815 60.8565876,55.2525577 60.8144399,54.9738678 L60.880003,54.9738678 L60.880003,17.6146435 L58.8171076,17.6146435 C57.3606707,25.2553913 46.1095784,31.1986644 30.4400031,31.1986644 C14.7704277,31.1986644 3.51933544,25.2575026 2.06289852,17.6146435 Z M5.70633236,29.5011896 L11.4150031,34.5957252 L11.4150031,59.6060316 L5.70633236,55.8226052 L5.70633236,29.5011896 Z" id="形状"></path>
                    <path d="M28.5386738,0 C23.4083631,0 19.2263754,2.53987832 19.0271759,5.71525404 L19.0271759,5.94327304 C19.0271759,6.13962274 19.0413939,6.33386115 19.0741754,6.52387698 L19.1233477,6.79412172 L19.0271759,6.79412172 C19.1303616,10.3552384 19.34766,19.7141502 19.6790709,34.8708574 C20.0649971,37.4241779 23.8970556,38.8187547 31.1752461,39.0545878 C33.7765677,38.9066757 38.5625288,38.1917751 38.5625288,34.5202469 L38.0500031,5.71525404 L38.0382954,5.71525404 L38.0359538,5.61813484 C37.7643354,2.48709614 33.6151292,0 28.5386738,0 Z M28.5386738,1.69747479 C32.29216,1.69747479 35.3338184,3.21760146 35.3338184,5.09453565 C35.3338184,6.97146984 32.29216,8.49159651 28.5410154,8.49159651 C24.7875292,8.49159651 21.7458708,6.97146984 21.7458708,5.09453565 C21.7458708,3.21971275 24.7875292,1.69747479 28.5386738,1.69747479 L28.5386738,1.69747479 Z" id="形状备份-2" opacity="0.762495495"></path>
                </g>
            </g>
        </g>
    </g>
</svg>