<?xml version="1.0" encoding="UTF-8"?>
<svg width="94px" height="94px" viewBox="0 0 94 94" version="1.1" xmlns="http://www.w3.org/2000/svg" xmlns:xlink="http://www.w3.org/1999/xlink">
    <title>光配单元</title>
    <g id="页面-1" stroke="none" stroke-width="1" fill="none" fill-rule="evenodd">
        <g id="光配单元" fill-rule="nonzero">
            <rect id="矩形" fill="#000000" opacity="0" x="0" y="0" width="94" height="94"></rect>
            <g id="编组-8" transform="translate(7.000000, 7.172414)">
                <g id="编组-7">
                    <path d="M17.5661376,1.43725816 L73.8624339,1.43725816 C77.8130512,1.43725816 79.7883598,3.81900025 79.7883598,8.58248443 L79.7883598,19.3003238 C79.7883598,24.063808 77.8130512,26.44555 73.8624339,26.44555 L17.5661376,26.44555 C13.6155203,26.44555 11.6402116,24.063808 11.6402116,19.3003238 L11.6402116,8.58248443 C11.6402116,3.81900025 13.6155203,1.43725816 17.5661376,1.43725816 Z" id="路径" fill="#5C97FF" opacity="0.2"></path>
                    <path d="M74.0740741,28.0597015 L5.92592596,28.0597015 C2.65312742,28.0597015 0,25.2679779 0,21.8242123 L0,6.23548925 C0,2.79172363 2.65312742,0 5.92592596,0 L74.0740741,0 C77.3468726,0 80,2.79172366 80,6.23548925 L80,21.8242123 C80,25.2679779 77.3468726,28.0597015 74.0740741,28.0597015 Z M6.60110323,2.15588724 C5.39377255,2.15588724 4.23589099,2.69877076 3.38217929,3.66510961 C2.52846759,4.63144846 2.04885738,5.9420852 2.04885738,7.3086947 L2.04885738,21.0495144 C2.04885738,23.8953313 4.08696727,26.2023217 6.60110323,26.2023217 L73.3673759,26.2023217 C74.5747065,26.2023217 75.7325881,25.6594383 76.5862998,24.6930994 C77.4400115,23.7267606 77.9196218,22.4161239 77.9196218,21.0495144 L77.9196218,7.3086947 C77.9196218,5.94208519 77.4400116,4.63144843 76.5862999,3.66510958 C75.7325881,2.69877072 74.5747066,2.15588724 73.3673759,2.15588724 L6.60110323,2.15588724 Z" id="形状" fill="#5C97FF"></path>
                    <path d="M10.3703704,12.4709785 L28.1481482,12.4709785 C29.1358025,12.4709785 29.6296296,12.9906026 29.6296296,14.0298508 L29.6296296,14.0298508 C29.6296296,15.0690989 29.1358025,15.5887231 28.1481482,15.5887231 L10.3703704,15.5887231 C9.38271608,15.5887231 8.88888885,15.069099 8.88888885,14.0298508 L8.88888885,14.0298508 C8.88888885,12.9906026 9.38271603,12.4709785 10.3703704,12.4709785 Z" id="路径" fill="#FFB266"></path>
                    <path d="M42.962963,18.7064677 C40.5083641,18.7064677 38.5185186,16.612675 38.5185186,14.0298508 C38.5185186,11.4470266 40.5083641,9.35323387 42.962963,9.35323387 C45.4175619,9.35323387 47.4074074,11.4470266 47.4074074,14.0298508 C47.4074074,16.612675 45.4175619,18.7064677 42.962963,18.7064677 Z M42.962963,12.4709785 C42.1447634,12.4709785 41.4814815,13.1689094 41.4814815,14.0298508 C41.4814815,14.8907921 42.1447634,15.588723 42.962963,15.588723 C43.7811626,15.588723 44.4444444,14.8907921 44.4444444,14.0298508 C44.4444444,13.1689094 43.7811626,12.4709785 42.962963,12.4709785 Z" id="形状" fill="#5C97FF"></path>
                    <path d="M54.8148148,18.7064677 C52.3602159,18.7064677 50.3703705,16.6126749 50.3703705,14.0298507 C50.3703705,11.4470265 52.3602161,9.35323387 54.8148149,9.35323387 C57.2694138,9.35323387 59.2592593,11.4470266 59.2592593,14.0298508 C59.2592593,15.2701667 58.7910067,16.4596825 57.9575117,17.3367183 C57.1240166,18.2137541 55.9935548,18.7064677 54.8148148,18.7064677 Z M54.8148148,12.4709785 C53.9966152,12.4709785 53.3333334,13.1689095 53.3333334,14.0298508 C53.3333334,14.8907922 53.9966153,15.588723 54.8148149,15.588723 C55.6330145,15.588723 56.2962963,14.8907921 56.2962963,14.0298508 C56.2962963,13.6164121 56.1402121,13.2199068 55.8623804,12.9275616 C55.5845488,12.6352163 55.2077281,12.4709785 54.8148148,12.4709785 L54.8148148,12.4709785 Z" id="形状" fill="#5C97FF"></path>
                    <path d="M66.6666667,18.7064677 C64.2120678,18.7064677 62.2222223,16.612675 62.2222223,14.0298508 C62.2222223,11.4470266 64.2120678,9.35323387 66.6666667,9.35323387 C69.1212656,9.35323387 71.1111111,11.4470266 71.1111111,14.0298508 C71.1111111,16.612675 69.1212656,18.7064677 66.6666667,18.7064677 Z M66.6666667,12.4709785 C65.8484671,12.4709785 65.1851853,13.1689094 65.1851853,14.0298508 C65.1851853,14.8907921 65.8484671,15.588723 66.6666667,15.588723 C67.4848663,15.588723 68.1481482,14.8907921 68.1481482,14.0298508 C68.1481482,13.1689094 67.4848663,12.4709785 66.6666667,12.4709785 Z" id="形状" fill="#5C97FF"></path>
                </g>
                <g id="编组-7备份" transform="translate(0.000000, 25.970149)">
                    <path d="M17.5661376,1.43725816 L73.8624339,1.43725816 C77.8130512,1.43725816 79.7883598,3.81900025 79.7883598,8.58248443 L79.7883598,19.3003238 C79.7883598,24.063808 77.8130512,26.44555 73.8624339,26.44555 L17.5661376,26.44555 C13.6155203,26.44555 11.6402116,24.063808 11.6402116,19.3003238 L11.6402116,8.58248443 C11.6402116,3.81900025 13.6155203,1.43725816 17.5661376,1.43725816 Z" id="路径" fill="#5C97FF" opacity="0.2"></path>
                    <path d="M74.0740741,28.0597015 L5.92592596,28.0597015 C2.65312742,28.0597015 0,25.2679779 0,21.8242123 L0,6.23548925 C0,2.79172363 2.65312742,0 5.92592596,0 L74.0740741,0 C77.3468726,0 80,2.79172366 80,6.23548925 L80,21.8242123 C80,25.2679779 77.3468726,28.0597015 74.0740741,28.0597015 Z M6.60110323,2.15588724 C5.39377255,2.15588724 4.23589099,2.69877076 3.38217929,3.66510961 C2.52846759,4.63144846 2.04885738,5.9420852 2.04885738,7.3086947 L2.04885738,21.0495144 C2.04885738,23.8953313 4.08696727,26.2023217 6.60110323,26.2023217 L73.3673759,26.2023217 C74.5747065,26.2023217 75.7325881,25.6594383 76.5862998,24.6930994 C77.4400115,23.7267606 77.9196218,22.4161239 77.9196218,21.0495144 L77.9196218,7.3086947 C77.9196218,5.94208519 77.4400116,4.63144843 76.5862999,3.66510958 C75.7325881,2.69877072 74.5747066,2.15588724 73.3673759,2.15588724 L6.60110323,2.15588724 Z" id="形状" fill="#5C97FF"></path>
                    <path d="M10.3703704,12.4709785 L28.1481482,12.4709785 C29.1358025,12.4709785 29.6296296,12.9906026 29.6296296,14.0298508 L29.6296296,14.0298508 C29.6296296,15.0690989 29.1358025,15.5887231 28.1481482,15.5887231 L10.3703704,15.5887231 C9.38271608,15.5887231 8.88888885,15.069099 8.88888885,14.0298508 L8.88888885,14.0298508 C8.88888885,12.9906026 9.38271603,12.4709785 10.3703704,12.4709785 Z" id="路径" fill="#FFB266"></path>
                    <path d="M42.962963,18.7064677 C40.5083641,18.7064677 38.5185186,16.612675 38.5185186,14.0298508 C38.5185186,11.4470266 40.5083641,9.35323387 42.962963,9.35323387 C45.4175619,9.35323387 47.4074074,11.4470266 47.4074074,14.0298508 C47.4074074,16.612675 45.4175619,18.7064677 42.962963,18.7064677 Z M42.962963,12.4709785 C42.1447634,12.4709785 41.4814815,13.1689094 41.4814815,14.0298508 C41.4814815,14.8907921 42.1447634,15.588723 42.962963,15.588723 C43.7811626,15.588723 44.4444444,14.8907921 44.4444444,14.0298508 C44.4444444,13.1689094 43.7811626,12.4709785 42.962963,12.4709785 Z" id="形状" fill="#5C97FF"></path>
                    <path d="M54.8148148,18.7064677 C52.3602159,18.7064677 50.3703705,16.6126749 50.3703705,14.0298507 C50.3703705,11.4470265 52.3602161,9.35323387 54.8148149,9.35323387 C57.2694138,9.35323387 59.2592593,11.4470266 59.2592593,14.0298508 C59.2592593,15.2701667 58.7910067,16.4596825 57.9575117,17.3367183 C57.1240166,18.2137541 55.9935548,18.7064677 54.8148148,18.7064677 Z M54.8148148,12.4709785 C53.9966152,12.4709785 53.3333334,13.1689095 53.3333334,14.0298508 C53.3333334,14.8907922 53.9966153,15.588723 54.8148149,15.588723 C55.6330145,15.588723 56.2962963,14.8907921 56.2962963,14.0298508 C56.2962963,13.6164121 56.1402121,13.2199068 55.8623804,12.9275616 C55.5845488,12.6352163 55.2077281,12.4709785 54.8148148,12.4709785 L54.8148148,12.4709785 Z" id="形状" fill="#5C97FF"></path>
                    <path d="M66.6666667,18.7064677 C64.2120678,18.7064677 62.2222223,16.612675 62.2222223,14.0298508 C62.2222223,11.4470266 64.2120678,9.35323387 66.6666667,9.35323387 C69.1212656,9.35323387 71.1111111,11.4470266 71.1111111,14.0298508 C71.1111111,16.612675 69.1212656,18.7064677 66.6666667,18.7064677 Z M66.6666667,12.4709785 C65.8484671,12.4709785 65.1851853,13.1689094 65.1851853,14.0298508 C65.1851853,14.8907921 65.8484671,15.588723 66.6666667,15.588723 C67.4848663,15.588723 68.1481482,14.8907921 68.1481482,14.0298508 C68.1481482,13.1689094 67.4848663,12.4709785 66.6666667,12.4709785 Z" id="形状" fill="#5C97FF"></path>
                </g>
                <g id="编组-7备份-2" transform="translate(0.000000, 51.940298)">
                    <path d="M17.5661376,1.43725816 L73.8624339,1.43725816 C77.8130512,1.43725816 79.7883598,3.81900025 79.7883598,8.58248443 L79.7883598,19.3003238 C79.7883598,24.063808 77.8130512,26.44555 73.8624339,26.44555 L17.5661376,26.44555 C13.6155203,26.44555 11.6402116,24.063808 11.6402116,19.3003238 L11.6402116,8.58248443 C11.6402116,3.81900025 13.6155203,1.43725816 17.5661376,1.43725816 Z" id="路径" fill="#5C97FF" opacity="0.2"></path>
                    <path d="M74.0740741,28.0597015 L5.92592596,28.0597015 C2.65312742,28.0597015 0,25.2679779 0,21.8242123 L0,6.23548925 C0,2.79172363 2.65312742,0 5.92592596,0 L74.0740741,0 C77.3468726,0 80,2.79172366 80,6.23548925 L80,21.8242123 C80,25.2679779 77.3468726,28.0597015 74.0740741,28.0597015 Z M6.60110323,2.15588724 C5.39377255,2.15588724 4.23589099,2.69877076 3.38217929,3.66510961 C2.52846759,4.63144846 2.04885738,5.9420852 2.04885738,7.3086947 L2.04885738,21.0495144 C2.04885738,23.8953313 4.08696727,26.2023217 6.60110323,26.2023217 L73.3673759,26.2023217 C74.5747065,26.2023217 75.7325881,25.6594383 76.5862998,24.6930994 C77.4400115,23.7267606 77.9196218,22.4161239 77.9196218,21.0495144 L77.9196218,7.3086947 C77.9196218,5.94208519 77.4400116,4.63144843 76.5862999,3.66510958 C75.7325881,2.69877072 74.5747066,2.15588724 73.3673759,2.15588724 L6.60110323,2.15588724 Z" id="形状" fill="#5C97FF"></path>
                    <path d="M10.3703704,12.4709785 L28.1481482,12.4709785 C29.1358025,12.4709785 29.6296296,12.9906026 29.6296296,14.0298508 L29.6296296,14.0298508 C29.6296296,15.0690989 29.1358025,15.5887231 28.1481482,15.5887231 L10.3703704,15.5887231 C9.38271608,15.5887231 8.88888885,15.069099 8.88888885,14.0298508 L8.88888885,14.0298508 C8.88888885,12.9906026 9.38271603,12.4709785 10.3703704,12.4709785 Z" id="路径" fill="#FFB266"></path>
                    <path d="M42.962963,18.7064677 C40.5083641,18.7064677 38.5185186,16.612675 38.5185186,14.0298508 C38.5185186,11.4470266 40.5083641,9.35323387 42.962963,9.35323387 C45.4175619,9.35323387 47.4074074,11.4470266 47.4074074,14.0298508 C47.4074074,16.612675 45.4175619,18.7064677 42.962963,18.7064677 Z M42.962963,12.4709785 C42.1447634,12.4709785 41.4814815,13.1689094 41.4814815,14.0298508 C41.4814815,14.8907921 42.1447634,15.588723 42.962963,15.588723 C43.7811626,15.588723 44.4444444,14.8907921 44.4444444,14.0298508 C44.4444444,13.1689094 43.7811626,12.4709785 42.962963,12.4709785 Z" id="形状" fill="#5C97FF"></path>
                    <path d="M54.8148148,18.7064677 C52.3602159,18.7064677 50.3703705,16.6126749 50.3703705,14.0298507 C50.3703705,11.4470265 52.3602161,9.35323387 54.8148149,9.35323387 C57.2694138,9.35323387 59.2592593,11.4470266 59.2592593,14.0298508 C59.2592593,15.2701667 58.7910067,16.4596825 57.9575117,17.3367183 C57.1240166,18.2137541 55.9935548,18.7064677 54.8148148,18.7064677 Z M54.8148148,12.4709785 C53.9966152,12.4709785 53.3333334,13.1689095 53.3333334,14.0298508 C53.3333334,14.8907922 53.9966153,15.588723 54.8148149,15.588723 C55.6330145,15.588723 56.2962963,14.8907921 56.2962963,14.0298508 C56.2962963,13.6164121 56.1402121,13.2199068 55.8623804,12.9275616 C55.5845488,12.6352163 55.2077281,12.4709785 54.8148148,12.4709785 L54.8148148,12.4709785 Z" id="形状" fill="#5C97FF"></path>
                    <path d="M66.6666667,18.7064677 C64.2120678,18.7064677 62.2222223,16.612675 62.2222223,14.0298508 C62.2222223,11.4470266 64.2120678,9.35323387 66.6666667,9.35323387 C69.1212656,9.35323387 71.1111111,11.4470266 71.1111111,14.0298508 C71.1111111,16.612675 69.1212656,18.7064677 66.6666667,18.7064677 Z M66.6666667,12.4709785 C65.8484671,12.4709785 65.1851853,13.1689094 65.1851853,14.0298508 C65.1851853,14.8907921 65.8484671,15.588723 66.6666667,15.588723 C67.4848663,15.588723 68.1481482,14.8907921 68.1481482,14.0298508 C68.1481482,13.1689094 67.4848663,12.4709785 66.6666667,12.4709785 Z" id="形状" fill="#5C97FF"></path>
                </g>
            </g>
        </g>
    </g>
</svg>