<?xml version="1.0" encoding="UTF-8"?>
<svg width="94px" height="94px" viewBox="0 0 94 94" version="1.1" xmlns="http://www.w3.org/2000/svg" xmlns:xlink="http://www.w3.org/1999/xlink">
    <title>中央空调室内机</title>
    <g id="页面-1" stroke="none" stroke-width="1" fill="none" fill-rule="evenodd">
        <g id="中央空调室内机" fill-rule="nonzero">
            <rect id="矩形" fill="#000000" opacity="0" x="0" y="0" width="94" height="94"></rect>
            <path d="M88.859375,28.3973633 L88.859375,71.2683398 C88.859375,75.2991406 85.5803906,78.578125 81.5505078,78.578125 L22.4204688,78.578125 C23.8102734,47.7683398 44.3957227,23.3164062 69.5866211,23.3164062 C76.4511914,23.3164062 82.9742773,25.1321484 88.859375,28.3973633 Z" id="路径" fill="#9BD9FB"></path>
            <path d="M83.7141602,79.5805469 L11.4388086,79.5805469 C8.22958984,79.5805469 5.61888672,76.9698438 5.61888672,73.760625 L5.61888672,21.6870117 C5.61888672,18.477793 8.22958984,15.8670898 11.4388086,15.8670898 L83.7141602,15.8670898 C86.9233789,15.8670898 89.5340823,18.477793 89.5340823,21.6870117 L89.5340823,73.760625 C89.535,76.9698438 86.9233789,79.5805469 83.7141602,79.5805469 Z M9.80599651,17.8670898 C8.59958022,17.8670898 7.61888672,18.851049 7.61888672,20.0593354 L7.61888672,74.6748443 C7.61888672,75.8840935 8.60054074,76.8670898 9.80599651,76.8670898 L85.4317769,76.8670898 C86.6381932,76.8670898 87.6188867,75.8831307 87.6188867,74.6748443 L87.6188867,20.0602982 C87.6188867,18.851049 86.6372327,17.8680526 85.4317769,17.8680526 L9.80599651,17.8680526 L9.80599651,17.8670898 Z" id="形状" fill="#40455E"></path>
            <path d="M72.7517773,79.5805469 L22.090918,79.5805469 L22.090918,66.2158398 L72.7517773,66.2158398 L72.7517773,79.5805469 L72.7517773,79.5805469 Z M25.820625,76.9455469 L69.0220703,76.9455469 L69.0220703,69.9455469 L25.820625,69.9455469 L25.820625,76.9455469 Z M87.6696875,34.8249805 L7.48328125,34.8249805 C6.45332031,34.8249805 5.61888672,33.9896289 5.61888672,32.9605859 C5.61888672,31.930625 6.45423828,31.0961914 7.48328125,31.0961914 L87.6696875,31.0961914 C88.6996484,31.0961914 89.5340828,31.931543 89.5340828,32.9605859 C89.535,33.9905469 88.6996484,34.8249805 87.6696875,34.8249805 Z M62.1841211,42.0457227 L53.1705859,42.0457227 C52.140625,42.0457227 51.3061914,41.2103711 51.3061914,40.1813281 C51.3061914,39.1513672 52.141543,38.3169336 53.1705859,38.3169336 L62.1841211,38.3169336 C63.214082,38.3169336 64.0485156,39.1522852 64.0485156,40.1813281 C64.0485156,41.2112891 63.214082,42.0457227 62.1841211,42.0457227 L62.1841211,42.0457227 Z M79.3583984,41.654668 L70.1695313,41.654668 C69.119375,41.654668 68.268418,40.8037109 68.268418,39.7535547 C68.268418,38.7033984 69.119375,37.8524414 70.1695313,37.8524414 L79.3583984,37.8524414 C80.4085547,37.8524414 81.2595117,38.7033984 81.2595117,39.7535547 C81.2595117,40.8037109 80.4076367,41.654668 79.3583984,41.654668 Z" id="形状" fill="#40455E"></path>
        </g>
    </g>
</svg>