<?xml version="1.0" encoding="UTF-8"?>
<svg width="94px" height="94px" viewBox="0 0 94 94" version="1.1" xmlns="http://www.w3.org/2000/svg" xmlns:xlink="http://www.w3.org/1999/xlink">
    <title>IT应用系统数据调整流程-01备份 2</title>
    <g id="页面-1" stroke="none" stroke-width="1" fill="none" fill-rule="evenodd">
        <g id="IT应用系统数据调整流程-01备份-2">
            <rect id="矩形" fill="#000000" fill-rule="nonzero" opacity="0" x="0" y="0" width="94" height="94"></rect>
            <rect id="矩形" fill="#CBE4FE" x="20" y="22" width="65" height="45" rx="3"></rect>
            <g id="编组-10" transform="translate(7.000000, 12.000000)" fill="#1B81FC" fill-rule="nonzero">
                <path d="M72.1428571,57.8667115 L7.85714288,57.8667115 C3.5714286,57.8667115 0,54.4787307 0,50.4131539 L0,7.45355764 C0,3.38798072 3.5714286,0 7.85714288,0 L72.1428571,0 C76.4285714,0 80,3.3879808 80,7.45355764 L80,50.5486731 C80,54.61425 76.4285714,57.8667115 72.1428571,57.8667115 Z M6.50455935,3.20056056 C4.41094236,3.20056056 2.7659575,4.75194858 2.7659575,6.72644244 L2.7659575,51.5756606 C2.7659575,53.5501545 4.41094227,55.1015426 6.50455935,55.1015426 L73.7993921,55.1015426 C75.8930091,55.1015426 77.5379939,53.5501546 77.5379939,51.5756606 L77.5379939,6.72644244 C77.5379939,4.75194858 75.8930091,3.20056056 73.7993921,3.20056056 L6.50455935,3.20056056 Z" id="形状"></path>
                <path d="M40,70.47 C38.8571429,70.47 37.8571429,69.6163414 37.8571429,68.6407317 L37.8571429,57.2992683 C37.8571429,56.3236586 38.8571429,55.47 40,55.47 C41.1428571,55.47 42.1428571,56.3236586 42.1428571,57.2992683 L42.1428571,68.6407317 C42.1428571,69.6163414 41.1428571,70.47 40,70.47 Z" id="形状"></path>
                <path d="M66.4285714,70.47 L13.4285714,70.47 C12.2857143,70.47 11.2857143,69.5213654 11.2857143,68.4372115 C11.2857143,67.3530577 12.2857143,66.4044231 13.4285714,66.4044231 L66.4285714,66.4044231 C67.5714285,66.4044231 68.5714285,67.3530577 68.5714285,68.4372115 C68.5714285,69.5213654 67.7142857,70.47 66.4285714,70.47 L66.4285714,70.47 Z" id="形状"></path>
            </g>
            <g id="全热交换-01" transform="translate(28.000000, 27.000000)" fill="#1B81FC" fill-rule="nonzero">
                <path d="M11.0229668,14.2318378 L11.0229668,10.0253099 L26.406667,10.0253099 C28.035927,10.0253099 29.4498908,10.950416 30.1567953,12.3060189 C30.6878438,11.5502612 31,10.6282229 31,9.63286895 C31,7.06945961 28.9308677,4.99137855 26.3783243,4.99137855 L11.0230054,4.99137855 L11.0230054,0.768191574 C11.0230054,0.146405986 10.3248395,-0.216871817 9.81907915,0.141707257 L0.323234257,6.87351094 C-0.107744752,7.17904486 -0.107744752,7.82094567 0.323234257,8.12647958 L9.81907915,14.8583221 C10.3248782,15.2168623 11.0229668,14.8535457 11.0229668,14.2318378 Z M36.6767944,24.8735101 L27.180902,18.1417306 C26.6751411,17.783114 25.9770133,18.1463905 25.9770133,18.7681738 L25.9770133,22.974803 L10.593376,22.974803 C8.96403713,22.974803 7.55007202,22.0497003 6.84320546,20.6941023 C6.31211787,21.4498572 6,22.3718922 6,23.3671649 C6,25.9306427 8.06917292,28.0086775 10.6216413,28.0086775 L25.9770133,28.0086775 L25.9770133,32.2318492 C25.9770133,32.8535938 26.6751798,33.2168703 27.180902,32.8582925 L36.6767944,26.126513 C37.1077352,25.8209025 37.1077352,25.179004 36.6767944,24.8735101 Z" id="形状"></path>
            </g>
        </g>
    </g>
</svg>